<?xml version="1.0" encoding="UTF-8" standalone="no"?>
<!DOCTYPE svg PUBLIC "-//W3C//DTD SVG 1.1//EN"
 "http://www.w3.org/Graphics/SVG/1.1/DTD/svg11.dtd">
<!-- Generated by graphviz version 2.43.0 (0)
 -->
<!-- Title: %3 Pages: 1 -->
<svg width="996pt" height="238pt"
 viewBox="0.00 0.00 996.00 237.74" xmlns="http://www.w3.org/2000/svg" xmlns:xlink="http://www.w3.org/1999/xlink">
<g id="graph0" class="graph" transform="scale(1 1) rotate(0) translate(36 201.74)">
<title>%3</title>
<polygon fill="dimgray" stroke="transparent" points="-36,36 -36,-201.74 960,-201.74 960,36 -36,36"/>
<text text-anchor="middle" x="462" y="-150.54" font-family="Helvetica,sans-Serif" font-size="14.00">Sweep&#39;s Plan &amp; Progress</text>
<!-- start -->
<g id="node1" class="node">
<title>start</title>
</g>
<!-- 2b176b5d&#45;2f25&#45;4dc7&#45;94ef&#45;e418d3c9b968 -->
<g id="node3" class="node">
<title>2b176b5d&#45;2f25&#45;4dc7&#45;94ef&#45;e418d3c9b968</title>
<ellipse fill="#0ee832" stroke="black" cx="216" cy="-99.87" rx="77.56" ry="26.74"/>
<text text-anchor="middle" x="216" y="-103.67" font-family="Helvetica,sans-Serif" font-size="14.00">✓ Modify</text>
<text text-anchor="middle" x="216" y="-88.67" font-family="Helvetica,sans-Serif" font-size="14.00">.env.example</text>
</g>
<!-- start&#45;&gt;2b176b5d&#45;2f25&#45;4dc7&#45;94ef&#45;e418d3c9b968 -->
<g id="edge6" class="edge">
<title>start&#45;&gt;2b176b5d&#45;2f25&#45;4dc7&#45;94ef&#45;e418d3c9b968</title>
<path fill="none" stroke="black" d="M86.83,-99.87C90.68,-99.87 107.44,-99.87 127.69,-99.87"/>
<polygon fill="black" stroke="black" points="127.86,-103.37 137.86,-99.87 127.86,-96.37 127.86,-103.37"/>
<text text-anchor="middle" x="112.36" y="-106.67" font-family="Helvetica,sans-Serif" font-size="14.00">Start</text>
</g>
<!-- end -->
<g id="node2" class="node">
<title>end</title>
</g>
<!-- b9aa384b&#45;5a0d&#45;4581&#45;9d8d&#45;ecaeb61a0ddc -->
<g id="node4" class="node">
<title>b9aa384b&#45;5a0d&#45;4581&#45;9d8d&#45;ecaeb61a0ddc</title>
<ellipse fill="#0ee832" stroke="black" cx="468" cy="-99.87" rx="73.58" ry="26.74"/>
<text text-anchor="middle" x="468" y="-103.67" font-family="Helvetica,sans-Serif" font-size="14.00">✓ Modify</text>
<text text-anchor="middle" x="468" y="-88.67" font-family="Helvetica,sans-Serif" font-size="14.00">README.md</text>
</g>
<!-- 2b176b5d&#45;2f25&#45;4dc7&#45;94ef&#45;e418d3c9b968&#45;&gt;b9aa384b&#45;5a0d&#45;4581&#45;9d8d&#45;ecaeb61a0ddc -->
<g id="edge2" class="edge">
<title>2b176b5d&#45;2f25&#45;4dc7&#45;94ef&#45;e418d3c9b968&#45;&gt;b9aa384b&#45;5a0d&#45;4581&#45;9d8d&#45;ecaeb61a0ddc</title>
<path fill="none" stroke="black" d="M294.26,-99.87C324.24,-99.87 354.22,-99.87 384.2,-99.87"/>
<polygon fill="black" stroke="black" points="384.36,-103.37 394.36,-99.87 384.36,-96.37 384.36,-103.37"/>
</g>
<!-- 5038cb59&#45;5af5&#45;4ac6&#45;8140&#45;544f670ac360 -->
<g id="node6" class="node">
<title>5038cb59&#45;5af5&#45;4ac6&#45;8140&#45;544f670ac360</title>
<polygon fill="#0ee832" stroke="black" points="302,-36 0,-36 0,0 302,0 302,-36"/>
<text text-anchor="middle" x="151" y="-14.3" font-family="Helvetica,sans-Serif" font-size="14.00">✓ Run GitHub Actions for `.env.example`</text>
</g>
<!-- 2b176b5d&#45;2f25&#45;4dc7&#45;94ef&#45;e418d3c9b968&#45;&gt;5038cb59&#45;5af5&#45;4ac6&#45;8140&#45;544f670ac360 -->
<g id="edge1" class="edge">
<title>2b176b5d&#45;2f25&#45;4dc7&#45;94ef&#45;e418d3c9b968&#45;&gt;5038cb59&#45;5af5&#45;4ac6&#45;8140&#45;544f670ac360</title>
<path fill="none" stroke="black" stroke-dasharray="5,2" d="M195.43,-73.6C187.72,-64.13 178.97,-53.37 171.29,-43.93"/>
<polygon fill="black" stroke="black" points="173.89,-41.58 164.86,-36.04 168.46,-46 173.89,-41.58"/>
</g>
<!-- 83633206&#45;d61f&#45;4968&#45;8071&#45;e3639c989fbe -->
<g id="node5" class="node">
<title>83633206&#45;d61f&#45;4968&#45;8071&#45;e3639c989fbe</title>
<ellipse fill="#0ee832" stroke="black" cx="713" cy="-99.87" rx="68.68" ry="26.74"/>
<text text-anchor="middle" x="713" y="-103.67" font-family="Helvetica,sans-Serif" font-size="14.00">✓ Modify</text>
<text text-anchor="middle" x="713" y="-88.67" font-family="Helvetica,sans-Serif" font-size="14.00">src/env.d.ts</text>
</g>
<!-- b9aa384b&#45;5a0d&#45;4581&#45;9d8d&#45;ecaeb61a0ddc&#45;&gt;83633206&#45;d61f&#45;4968&#45;8071&#45;e3639c989fbe -->
<g id="edge4" class="edge">
<title>b9aa384b&#45;5a0d&#45;4581&#45;9d8d&#45;ecaeb61a0ddc&#45;&gt;83633206&#45;d61f&#45;4968&#45;8071&#45;e3639c989fbe</title>
<path fill="none" stroke="black" d="M541.69,-99.87C572.59,-99.87 603.48,-99.87 634.38,-99.87"/>
<polygon fill="black" stroke="black" points="634.41,-103.37 644.41,-99.87 634.41,-96.37 634.41,-103.37"/>
</g>
<!-- 61041aab&#45;90c2&#45;4275&#45;b4ee&#45;1ad000180156 -->
<g id="node7" class="node">
<title>61041aab&#45;90c2&#45;4275&#45;b4ee&#45;1ad000180156</title>
<polygon fill="#0ee832" stroke="black" points="616,-36 320,-36 320,0 616,0 616,-36"/>
<text text-anchor="middle" x="468" y="-14.3" font-family="Helvetica,sans-Serif" font-size="14.00">✓ Run GitHub Actions for `README.md`</text>
</g>
<!-- b9aa384b&#45;5a0d&#45;4581&#45;9d8d&#45;ecaeb61a0ddc&#45;&gt;61041aab&#45;90c2&#45;4275&#45;b4ee&#45;1ad000180156 -->
<g id="edge3" class="edge">
<title>b9aa384b&#45;5a0d&#45;4581&#45;9d8d&#45;ecaeb61a0ddc&#45;&gt;61041aab&#45;90c2&#45;4275&#45;b4ee&#45;1ad000180156</title>
<path fill="none" stroke="black" stroke-dasharray="5,2" d="M468,-72.72C468,-64.27 468,-54.89 468,-46.36"/>
<polygon fill="black" stroke="black" points="471.5,-46.15 468,-36.15 464.5,-46.15 471.5,-46.15"/>
</g>
<!-- 83633206&#45;d61f&#45;4968&#45;8071&#45;e3639c989fbe&#45;&gt;end -->
<g id="edge7" class="edge">
<title>83633206&#45;d61f&#45;4968&#45;8071&#45;e3639c989fbe&#45;&gt;end</title>
<path fill="none" stroke="black" d="M781.7,-99.87C800.14,-99.87 817.98,-99.87 828.97,-99.87"/>
<polygon fill="black" stroke="black" points="829.27,-103.37 839.27,-99.87 829.27,-96.37 829.27,-103.37"/>
<text text-anchor="middle" x="810.54" y="-106.67" font-family="Helvetica,sans-Serif" font-size="14.00">Finish</text>
</g>
<!-- c5af775c&#45;bf1d&#45;4822&#45;af88&#45;09d31b92fd52 -->
<g id="node8" class="node">
<title>c5af775c&#45;bf1d&#45;4822&#45;af88&#45;09d31b92fd52</title>
<polygon fill="#0ee832" stroke="black" points="924,-36 634,-36 634,0 924,0 924,-36"/>
<text text-anchor="middle" x="779" y="-14.3" font-family="Helvetica,sans-Serif" font-size="14.00">✓ Run GitHub Actions for `src/env.d.ts`</text>
</g>
<!-- 83633206&#45;d61f&#45;4968&#45;8071&#45;e3639c989fbe&#45;&gt;c5af775c&#45;bf1d&#45;4822&#45;af88&#45;09d31b92fd52 -->
<g id="edge5" class="edge">
<title>83633206&#45;d61f&#45;4968&#45;8071&#45;e3639c989fbe&#45;&gt;c5af775c&#45;bf1d&#45;4822&#45;af88&#45;09d31b92fd52</title>
<path fill="none" stroke="black" stroke-dasharray="5,2" d="M733.52,-74.04C741.36,-64.54 750.31,-53.72 758.18,-44.19"/>
<polygon fill="black" stroke="black" points="761.1,-46.16 764.77,-36.22 755.7,-41.7 761.1,-46.16"/>
</g>
</g>
</svg>
