<?xml version="1.0" encoding="UTF-8" standalone="no"?>
<!DOCTYPE svg PUBLIC "-//W3C//DTD SVG 1.1//EN"
 "http://www.w3.org/Graphics/SVG/1.1/DTD/svg11.dtd">
<!-- Generated by graphviz version 2.43.0 (0)
 -->
<!-- Title: %3 Pages: 1 -->
<svg width="1051pt" height="238pt"
 viewBox="0.00 0.00 1050.50 237.74" xmlns="http://www.w3.org/2000/svg" xmlns:xlink="http://www.w3.org/1999/xlink">
<g id="graph0" class="graph" transform="scale(1 1) rotate(0) translate(36 201.74)">
<title>%3</title>
<polygon fill="dimgray" stroke="transparent" points="-36,36 -36,-201.74 1014.5,-201.74 1014.5,36 -36,36"/>
<text text-anchor="middle" x="489.25" y="-150.54" font-family="Helvetica,sans-Serif" font-size="14.00">Sweep&#39;s Plan &amp; Progress</text>
<!-- start -->
<g id="node1" class="node">
<title>start</title>
</g>
<!-- 67148bc9&#45;e7d2&#45;4ece&#45;98de&#45;9601d03f6432 -->
<g id="node3" class="node">
<title>67148bc9&#45;e7d2&#45;4ece&#45;98de&#45;9601d03f6432</title>
<ellipse fill="#ee0000" stroke="black" cx="217" cy="-99.87" rx="77.56" ry="26.74"/>
<text text-anchor="middle" x="217" y="-103.67" font-family="Helvetica,sans-Serif" font-size="14.00">✗ Modify</text>
<text text-anchor="middle" x="217" y="-88.67" font-family="Helvetica,sans-Serif" font-size="14.00">.env.example</text>
</g>
<!-- start&#45;&gt;67148bc9&#45;e7d2&#45;4ece&#45;98de&#45;9601d03f6432 -->
<g id="edge6" class="edge">
<title>start&#45;&gt;67148bc9&#45;e7d2&#45;4ece&#45;98de&#45;9601d03f6432</title>
<path fill="none" stroke="black" d="M87.83,-99.87C91.68,-99.87 108.44,-99.87 128.69,-99.87"/>
<polygon fill="black" stroke="black" points="128.86,-103.37 138.86,-99.87 128.86,-96.37 128.86,-103.37"/>
<text text-anchor="middle" x="113.36" y="-106.67" font-family="Helvetica,sans-Serif" font-size="14.00">Start</text>
</g>
<!-- end -->
<g id="node2" class="node">
<title>end</title>
</g>
<!-- 6aef0557&#45;fbb7&#45;4f92&#45;ae22&#45;313dc7d6c772 -->
<g id="node4" class="node">
<title>6aef0557&#45;fbb7&#45;4f92&#45;ae22&#45;313dc7d6c772</title>
<ellipse fill="#0ee832" stroke="black" cx="470" cy="-99.87" rx="73.58" ry="26.74"/>
<text text-anchor="middle" x="470" y="-103.67" font-family="Helvetica,sans-Serif" font-size="14.00">✓ Modify</text>
<text text-anchor="middle" x="470" y="-88.67" font-family="Helvetica,sans-Serif" font-size="14.00">README.md</text>
</g>
<!-- 67148bc9&#45;e7d2&#45;4ece&#45;98de&#45;9601d03f6432&#45;&gt;6aef0557&#45;fbb7&#45;4f92&#45;ae22&#45;313dc7d6c772 -->
<g id="edge2" class="edge">
<title>67148bc9&#45;e7d2&#45;4ece&#45;98de&#45;9601d03f6432&#45;&gt;6aef0557&#45;fbb7&#45;4f92&#45;ae22&#45;313dc7d6c772</title>
<path fill="none" stroke="black" d="M295.07,-99.87C325.36,-99.87 355.65,-99.87 385.93,-99.87"/>
<polygon fill="black" stroke="black" points="386.2,-103.37 396.2,-99.87 386.2,-96.37 386.2,-103.37"/>
</g>
<!-- 0646310e&#45;0f35&#45;419c&#45;8363&#45;d703c8f06a33 -->
<g id="node6" class="node">
<title>0646310e&#45;0f35&#45;419c&#45;8363&#45;d703c8f06a33</title>
<polygon fill="#ee0000" stroke="black" points="302,-36 0,-36 0,0 302,0 302,-36"/>
<text text-anchor="middle" x="151" y="-14.3" font-family="Helvetica,sans-Serif" font-size="14.00">✗ Run GitHub Actions for `.env.example`</text>
</g>
<!-- 67148bc9&#45;e7d2&#45;4ece&#45;98de&#45;9601d03f6432&#45;&gt;0646310e&#45;0f35&#45;419c&#45;8363&#45;d703c8f06a33 -->
<g id="edge1" class="edge">
<title>67148bc9&#45;e7d2&#45;4ece&#45;98de&#45;9601d03f6432&#45;&gt;0646310e&#45;0f35&#45;419c&#45;8363&#45;d703c8f06a33</title>
<path fill="none" stroke="black" stroke-dasharray="5,2" d="M196.12,-73.6C188.29,-64.13 179.4,-53.37 171.6,-43.93"/>
<polygon fill="black" stroke="black" points="174.15,-41.52 165.08,-36.04 168.75,-45.97 174.15,-41.52"/>
</g>
<!-- e55414cf&#45;b1a9&#45;4fcf&#45;84c9&#45;0bcebf839d98 -->
<g id="node5" class="node">
<title>e55414cf&#45;b1a9&#45;4fcf&#45;84c9&#45;0bcebf839d98</title>
<ellipse fill="white" stroke="black" cx="747" cy="-99.87" rx="106.13" ry="26.74"/>
<text text-anchor="middle" x="747" y="-103.67" font-family="Helvetica,sans-Serif" font-size="14.00">▶ Modify</text>
<text text-anchor="middle" x="747" y="-88.67" font-family="Helvetica,sans-Serif" font-size="14.00">README.zh&#45;CN.md</text>
</g>
<!-- 6aef0557&#45;fbb7&#45;4f92&#45;ae22&#45;313dc7d6c772&#45;&gt;e55414cf&#45;b1a9&#45;4fcf&#45;84c9&#45;0bcebf839d98 -->
<g id="edge4" class="edge">
<title>6aef0557&#45;fbb7&#45;4f92&#45;ae22&#45;313dc7d6c772&#45;&gt;e55414cf&#45;b1a9&#45;4fcf&#45;84c9&#45;0bcebf839d98</title>
<path fill="none" stroke="black" d="M543.58,-99.87C572.6,-99.87 601.63,-99.87 630.65,-99.87"/>
<polygon fill="black" stroke="black" points="630.92,-103.37 640.92,-99.87 630.92,-96.37 630.92,-103.37"/>
</g>
<!-- 42dc4013&#45;7024&#45;4432&#45;b03d&#45;28fe51e55476 -->
<g id="node7" class="node">
<title>42dc4013&#45;7024&#45;4432&#45;b03d&#45;28fe51e55476</title>
<polygon fill="yellow" stroke="black" points="619.5,-36 320.5,-36 320.5,0 619.5,0 619.5,-36"/>
<text text-anchor="middle" x="470" y="-14.3" font-family="Helvetica,sans-Serif" font-size="14.00">⋯ Run GitHub Actions for `README.md`</text>
</g>
<!-- 6aef0557&#45;fbb7&#45;4f92&#45;ae22&#45;313dc7d6c772&#45;&gt;42dc4013&#45;7024&#45;4432&#45;b03d&#45;28fe51e55476 -->
<g id="edge3" class="edge">
<title>6aef0557&#45;fbb7&#45;4f92&#45;ae22&#45;313dc7d6c772&#45;&gt;42dc4013&#45;7024&#45;4432&#45;b03d&#45;28fe51e55476</title>
<path fill="none" stroke="black" stroke-dasharray="5,2" d="M470,-72.72C470,-64.27 470,-54.89 470,-46.36"/>
<polygon fill="black" stroke="black" points="473.5,-46.15 470,-36.15 466.5,-46.15 473.5,-46.15"/>
</g>
<!-- e55414cf&#45;b1a9&#45;4fcf&#45;84c9&#45;0bcebf839d98&#45;&gt;end -->
<g id="edge7" class="edge">
<title>e55414cf&#45;b1a9&#45;4fcf&#45;84c9&#45;0bcebf839d98&#45;&gt;end</title>
<path fill="none" stroke="black" d="M853.18,-99.87C872.38,-99.87 889.63,-99.87 900.19,-99.87"/>
<polygon fill="black" stroke="black" points="900.32,-103.37 910.32,-99.87 900.32,-96.37 900.32,-103.37"/>
<text text-anchor="middle" x="881.78" y="-106.67" font-family="Helvetica,sans-Serif" font-size="14.00">Finish</text>
</g>
<!-- f09d17c0&#45;42c3&#45;4c3b&#45;af60&#45;34f803c51b0d -->
<g id="node8" class="node">
<title>f09d17c0&#45;42c3&#45;4c3b&#45;af60&#45;34f803c51b0d</title>
<polygon fill="white" stroke="black" points="978.5,-36 637.5,-36 637.5,0 978.5,0 978.5,-36"/>
<text text-anchor="middle" x="808" y="-14.3" font-family="Helvetica,sans-Serif" font-size="14.00">▶ Run GitHub Actions for `README.zh&#45;CN.md`</text>
</g>
<!-- e55414cf&#45;b1a9&#45;4fcf&#45;84c9&#45;0bcebf839d98&#45;&gt;f09d17c0&#45;42c3&#45;4c3b&#45;af60&#45;34f803c51b0d -->
<g id="edge5" class="edge">
<title>e55414cf&#45;b1a9&#45;4fcf&#45;84c9&#45;0bcebf839d98&#45;&gt;f09d17c0&#45;42c3&#45;4c3b&#45;af60&#45;34f803c51b0d</title>
<path fill="none" stroke="black" stroke-dasharray="5,2" d="M766.64,-73.16C773.68,-63.94 781.6,-53.56 788.62,-44.37"/>
<polygon fill="black" stroke="black" points="791.47,-46.41 794.76,-36.34 785.91,-42.16 791.47,-46.41"/>
</g>
</g>
</svg>
