<?xml version="1.0" encoding="UTF-8" standalone="no"?>
<!DOCTYPE svg PUBLIC "-//W3C//DTD SVG 1.1//EN"
 "http://www.w3.org/Graphics/SVG/1.1/DTD/svg11.dtd">
<!-- Generated by graphviz version 2.43.0 (0)
 -->
<!-- Title: %3 Pages: 1 -->
<svg width="1047pt" height="238pt"
 viewBox="0.00 0.00 1046.50 237.74" xmlns="http://www.w3.org/2000/svg" xmlns:xlink="http://www.w3.org/1999/xlink">
<g id="graph0" class="graph" transform="scale(1 1) rotate(0) translate(36 201.74)">
<title>%3</title>
<polygon fill="dimgray" stroke="transparent" points="-36,36 -36,-201.74 1010.5,-201.74 1010.5,36 -36,36"/>
<text text-anchor="middle" x="487.25" y="-150.54" font-family="Helvetica,sans-Serif" font-size="14.00">Sweep&#39;s Plan &amp; Progress</text>
<!-- start -->
<g id="node1" class="node">
<title>start</title>
</g>
<!-- cf04bc61&#45;e4a1&#45;441d&#45;b21c&#45;1c769927b366 -->
<g id="node3" class="node">
<title>cf04bc61&#45;e4a1&#45;441d&#45;b21c&#45;1c769927b366</title>
<ellipse fill="#0ee832" stroke="black" cx="216" cy="-99.87" rx="77.56" ry="26.74"/>
<text text-anchor="middle" x="216" y="-103.67" font-family="Helvetica,sans-Serif" font-size="14.00">✓ Modify</text>
<text text-anchor="middle" x="216" y="-88.67" font-family="Helvetica,sans-Serif" font-size="14.00">.env.example</text>
</g>
<!-- start&#45;&gt;cf04bc61&#45;e4a1&#45;441d&#45;b21c&#45;1c769927b366 -->
<g id="edge6" class="edge">
<title>start&#45;&gt;cf04bc61&#45;e4a1&#45;441d&#45;b21c&#45;1c769927b366</title>
<path fill="none" stroke="black" d="M86.83,-99.87C90.68,-99.87 107.44,-99.87 127.69,-99.87"/>
<polygon fill="black" stroke="black" points="127.86,-103.37 137.86,-99.87 127.86,-96.37 127.86,-103.37"/>
<text text-anchor="middle" x="112.36" y="-106.67" font-family="Helvetica,sans-Serif" font-size="14.00">Start</text>
</g>
<!-- end -->
<g id="node2" class="node">
<title>end</title>
</g>
<!-- 58d09dbb&#45;2728&#45;4c4c&#45;8048&#45;ed7eddb320a2 -->
<g id="node4" class="node">
<title>58d09dbb&#45;2728&#45;4c4c&#45;8048&#45;ed7eddb320a2</title>
<ellipse fill="white" stroke="black" cx="468" cy="-99.87" rx="73.58" ry="26.74"/>
<text text-anchor="middle" x="468" y="-103.67" font-family="Helvetica,sans-Serif" font-size="14.00">▶ Modify</text>
<text text-anchor="middle" x="468" y="-88.67" font-family="Helvetica,sans-Serif" font-size="14.00">README.md</text>
</g>
<!-- cf04bc61&#45;e4a1&#45;441d&#45;b21c&#45;1c769927b366&#45;&gt;58d09dbb&#45;2728&#45;4c4c&#45;8048&#45;ed7eddb320a2 -->
<g id="edge2" class="edge">
<title>cf04bc61&#45;e4a1&#45;441d&#45;b21c&#45;1c769927b366&#45;&gt;58d09dbb&#45;2728&#45;4c4c&#45;8048&#45;ed7eddb320a2</title>
<path fill="none" stroke="black" d="M294.26,-99.87C324.24,-99.87 354.22,-99.87 384.2,-99.87"/>
<polygon fill="black" stroke="black" points="384.36,-103.37 394.36,-99.87 384.36,-96.37 384.36,-103.37"/>
</g>
<!-- 0bd4bca1&#45;556e&#45;4cbc&#45;b916&#45;f03908a7b9b2 -->
<g id="node6" class="node">
<title>0bd4bca1&#45;556e&#45;4cbc&#45;b916&#45;f03908a7b9b2</title>
<polygon fill="#0ee832" stroke="black" points="302,-36 0,-36 0,0 302,0 302,-36"/>
<text text-anchor="middle" x="151" y="-14.3" font-family="Helvetica,sans-Serif" font-size="14.00">✓ Run GitHub Actions for `.env.example`</text>
</g>
<!-- cf04bc61&#45;e4a1&#45;441d&#45;b21c&#45;1c769927b366&#45;&gt;0bd4bca1&#45;556e&#45;4cbc&#45;b916&#45;f03908a7b9b2 -->
<g id="edge1" class="edge">
<title>cf04bc61&#45;e4a1&#45;441d&#45;b21c&#45;1c769927b366&#45;&gt;0bd4bca1&#45;556e&#45;4cbc&#45;b916&#45;f03908a7b9b2</title>
<path fill="none" stroke="black" stroke-dasharray="5,2" d="M195.43,-73.6C187.72,-64.13 178.97,-53.37 171.29,-43.93"/>
<polygon fill="black" stroke="black" points="173.89,-41.58 164.86,-36.04 168.46,-46 173.89,-41.58"/>
</g>
<!-- c8298582&#45;a46b&#45;4077&#45;bc38&#45;96f092f177ee -->
<g id="node5" class="node">
<title>c8298582&#45;a46b&#45;4077&#45;bc38&#45;96f092f177ee</title>
<ellipse fill="white" stroke="black" cx="744" cy="-99.87" rx="106.13" ry="26.74"/>
<text text-anchor="middle" x="744" y="-103.67" font-family="Helvetica,sans-Serif" font-size="14.00">▶ Modify</text>
<text text-anchor="middle" x="744" y="-88.67" font-family="Helvetica,sans-Serif" font-size="14.00">README.zh&#45;CN.md</text>
</g>
<!-- 58d09dbb&#45;2728&#45;4c4c&#45;8048&#45;ed7eddb320a2&#45;&gt;c8298582&#45;a46b&#45;4077&#45;bc38&#45;96f092f177ee -->
<g id="edge4" class="edge">
<title>58d09dbb&#45;2728&#45;4c4c&#45;8048&#45;ed7eddb320a2&#45;&gt;c8298582&#45;a46b&#45;4077&#45;bc38&#45;96f092f177ee</title>
<path fill="none" stroke="black" d="M541.58,-99.87C570.23,-99.87 598.87,-99.87 627.52,-99.87"/>
<polygon fill="black" stroke="black" points="627.65,-103.37 637.65,-99.87 627.65,-96.37 627.65,-103.37"/>
</g>
<!-- 2c8b2baa&#45;3b3b&#45;438b&#45;b0c5&#45;841f76db7172 -->
<g id="node7" class="node">
<title>2c8b2baa&#45;3b3b&#45;438b&#45;b0c5&#45;841f76db7172</title>
<polygon fill="white" stroke="black" points="615.5,-36 320.5,-36 320.5,0 615.5,0 615.5,-36"/>
<text text-anchor="middle" x="468" y="-14.3" font-family="Helvetica,sans-Serif" font-size="14.00">▶ Run GitHub Actions for `README.md`</text>
</g>
<!-- 58d09dbb&#45;2728&#45;4c4c&#45;8048&#45;ed7eddb320a2&#45;&gt;2c8b2baa&#45;3b3b&#45;438b&#45;b0c5&#45;841f76db7172 -->
<g id="edge3" class="edge">
<title>58d09dbb&#45;2728&#45;4c4c&#45;8048&#45;ed7eddb320a2&#45;&gt;2c8b2baa&#45;3b3b&#45;438b&#45;b0c5&#45;841f76db7172</title>
<path fill="none" stroke="black" stroke-dasharray="5,2" d="M468,-72.72C468,-64.27 468,-54.89 468,-46.36"/>
<polygon fill="black" stroke="black" points="471.5,-46.15 468,-36.15 464.5,-46.15 471.5,-46.15"/>
</g>
<!-- c8298582&#45;a46b&#45;4077&#45;bc38&#45;96f092f177ee&#45;&gt;end -->
<g id="edge7" class="edge">
<title>c8298582&#45;a46b&#45;4077&#45;bc38&#45;96f092f177ee&#45;&gt;end</title>
<path fill="none" stroke="black" d="M850.18,-99.87C869.38,-99.87 886.63,-99.87 897.19,-99.87"/>
<polygon fill="black" stroke="black" points="897.32,-103.37 907.32,-99.87 897.32,-96.37 897.32,-103.37"/>
<text text-anchor="middle" x="878.78" y="-106.67" font-family="Helvetica,sans-Serif" font-size="14.00">Finish</text>
</g>
<!-- d320305c&#45;a3ac&#45;42c4&#45;804d&#45;07a1db3f6c74 -->
<g id="node8" class="node">
<title>d320305c&#45;a3ac&#45;42c4&#45;804d&#45;07a1db3f6c74</title>
<polygon fill="white" stroke="black" points="974.5,-36 633.5,-36 633.5,0 974.5,0 974.5,-36"/>
<text text-anchor="middle" x="804" y="-14.3" font-family="Helvetica,sans-Serif" font-size="14.00">▶ Run GitHub Actions for `README.zh&#45;CN.md`</text>
</g>
<!-- c8298582&#45;a46b&#45;4077&#45;bc38&#45;96f092f177ee&#45;&gt;d320305c&#45;a3ac&#45;42c4&#45;804d&#45;07a1db3f6c74 -->
<g id="edge5" class="edge">
<title>c8298582&#45;a46b&#45;4077&#45;bc38&#45;96f092f177ee&#45;&gt;d320305c&#45;a3ac&#45;42c4&#45;804d&#45;07a1db3f6c74</title>
<path fill="none" stroke="black" stroke-dasharray="5,2" d="M763.31,-73.16C770.24,-63.94 778.04,-53.56 784.94,-44.37"/>
<polygon fill="black" stroke="black" points="787.77,-46.43 790.98,-36.34 782.17,-42.23 787.77,-46.43"/>
</g>
</g>
</svg>
