<?xml version="1.0" encoding="UTF-8" standalone="no"?>
<!DOCTYPE svg PUBLIC "-//W3C//DTD SVG 1.1//EN"
 "http://www.w3.org/Graphics/SVG/1.1/DTD/svg11.dtd">
<!-- Generated by graphviz version 2.43.0 (0)
 -->
<!-- Title: %3 Pages: 1 -->
<svg width="816pt" height="238pt"
 viewBox="0.00 0.00 815.50 237.74" xmlns="http://www.w3.org/2000/svg" xmlns:xlink="http://www.w3.org/1999/xlink">
<g id="graph0" class="graph" transform="scale(1 1) rotate(0) translate(36 201.74)">
<title>%3</title>
<polygon fill="dimgray" stroke="transparent" points="-36,36 -36,-201.74 779.5,-201.74 779.5,36 -36,36"/>
<text text-anchor="middle" x="371.75" y="-150.54" font-family="Helvetica,sans-Serif" font-size="14.00">Sweep&#39;s Plan &amp; Progress</text>
<!-- start -->
<g id="node1" class="node">
<title>start</title>
</g>
<!-- 6b0558fc&#45;f299&#45;416e&#45;a243&#45;be16cd35863d -->
<g id="node3" class="node">
<title>6b0558fc&#45;f299&#45;416e&#45;a243&#45;be16cd35863d</title>
<ellipse fill="#0ee832" stroke="black" cx="245" cy="-99.87" rx="136.44" ry="26.74"/>
<text text-anchor="middle" x="245" y="-103.67" font-family="Helvetica,sans-Serif" font-size="14.00">✓ Modify</text>
<text text-anchor="middle" x="245" y="-88.67" font-family="Helvetica,sans-Serif" font-size="14.00">src/pages/api/generate.ts</text>
</g>
<!-- start&#45;&gt;6b0558fc&#45;f299&#45;416e&#45;a243&#45;be16cd35863d -->
<g id="edge4" class="edge">
<title>start&#45;&gt;6b0558fc&#45;f299&#45;416e&#45;a243&#45;be16cd35863d</title>
<path fill="none" stroke="black" d="M57.54,-99.87C60.62,-99.87 76.62,-99.87 98.08,-99.87"/>
<polygon fill="black" stroke="black" points="98.29,-103.37 108.29,-99.87 98.29,-96.37 98.29,-103.37"/>
<text text-anchor="middle" x="83.01" y="-106.67" font-family="Helvetica,sans-Serif" font-size="14.00">Start</text>
</g>
<!-- end -->
<g id="node2" class="node">
<title>end</title>
</g>
<!-- d3392cc5&#45;4787&#45;40ef&#45;bd90&#45;ea7e954aa8c2 -->
<g id="node4" class="node">
<title>d3392cc5&#45;4787&#45;40ef&#45;bd90&#45;ea7e954aa8c2</title>
<ellipse fill="white" stroke="black" cx="548" cy="-99.87" rx="104.8" ry="26.74"/>
<text text-anchor="middle" x="548" y="-103.67" font-family="Helvetica,sans-Serif" font-size="14.00">▶ Modify</text>
<text text-anchor="middle" x="548" y="-88.67" font-family="Helvetica,sans-Serif" font-size="14.00">src/utils/tiktoken.ts</text>
</g>
<!-- 6b0558fc&#45;f299&#45;416e&#45;a243&#45;be16cd35863d&#45;&gt;d3392cc5&#45;4787&#45;40ef&#45;bd90&#45;ea7e954aa8c2 -->
<g id="edge2" class="edge">
<title>6b0558fc&#45;f299&#45;416e&#45;a243&#45;be16cd35863d&#45;&gt;d3392cc5&#45;4787&#45;40ef&#45;bd90&#45;ea7e954aa8c2</title>
<path fill="none" stroke="black" d="M381.71,-99.87C398.81,-99.87 415.92,-99.87 433.02,-99.87"/>
<polygon fill="black" stroke="black" points="433.09,-103.37 443.09,-99.87 433.09,-96.37 433.09,-103.37"/>
</g>
<!-- 5499714a&#45;9bac&#45;4789&#45;87e5&#45;fe9703baeb2c -->
<g id="node5" class="node">
<title>5499714a&#45;9bac&#45;4789&#45;87e5&#45;fe9703baeb2c</title>
<polygon fill="#0ee832" stroke="black" points="386,-36 0,-36 0,0 386,0 386,-36"/>
<text text-anchor="middle" x="193" y="-14.3" font-family="Helvetica,sans-Serif" font-size="14.00">✓ Run GitHub Actions for `src/pages/api/generate.ts`</text>
</g>
<!-- 6b0558fc&#45;f299&#45;416e&#45;a243&#45;be16cd35863d&#45;&gt;5499714a&#45;9bac&#45;4789&#45;87e5&#45;fe9703baeb2c -->
<g id="edge1" class="edge">
<title>6b0558fc&#45;f299&#45;416e&#45;a243&#45;be16cd35863d&#45;&gt;5499714a&#45;9bac&#45;4789&#45;87e5&#45;fe9703baeb2c</title>
<path fill="none" stroke="black" stroke-dasharray="5,2" d="M228.26,-73.16C222.38,-64.13 215.78,-53.98 209.89,-44.94"/>
<polygon fill="black" stroke="black" points="212.68,-42.81 204.29,-36.34 206.81,-46.63 212.68,-42.81"/>
</g>
<!-- d3392cc5&#45;4787&#45;40ef&#45;bd90&#45;ea7e954aa8c2&#45;&gt;end -->
<g id="edge5" class="edge">
<title>d3392cc5&#45;4787&#45;40ef&#45;bd90&#45;ea7e954aa8c2&#45;&gt;end</title>
<path fill="none" stroke="black" d="M653.07,-99.87C672.28,-99.87 689.57,-99.87 700.16,-99.87"/>
<polygon fill="black" stroke="black" points="700.32,-103.37 710.32,-99.87 700.32,-96.37 700.32,-103.37"/>
<text text-anchor="middle" x="681.58" y="-106.67" font-family="Helvetica,sans-Serif" font-size="14.00">Finish</text>
</g>
<!-- 19417ea9&#45;df2c&#45;413b&#45;ae9f&#45;faf2e7a423c7 -->
<g id="node6" class="node">
<title>19417ea9&#45;df2c&#45;413b&#45;ae9f&#45;faf2e7a423c7</title>
<polygon fill="white" stroke="black" points="743.5,-36 404.5,-36 404.5,0 743.5,0 743.5,-36"/>
<text text-anchor="middle" x="574" y="-14.3" font-family="Helvetica,sans-Serif" font-size="14.00">▶ Run GitHub Actions for `src/utils/tiktoken.ts`</text>
</g>
<!-- d3392cc5&#45;4787&#45;40ef&#45;bd90&#45;ea7e954aa8c2&#45;&gt;19417ea9&#45;df2c&#45;413b&#45;ae9f&#45;faf2e7a423c7 -->
<g id="edge3" class="edge">
<title>d3392cc5&#45;4787&#45;40ef&#45;bd90&#45;ea7e954aa8c2&#45;&gt;19417ea9&#45;df2c&#45;413b&#45;ae9f&#45;faf2e7a423c7</title>
<path fill="none" stroke="black" stroke-dasharray="5,2" d="M556.51,-72.72C559.32,-64.08 562.45,-54.47 565.28,-45.79"/>
<polygon fill="black" stroke="black" points="568.65,-46.74 568.42,-36.15 561.99,-44.57 568.65,-46.74"/>
</g>
</g>
</svg>
