<?xml version="1.0" encoding="UTF-8" standalone="no"?>
<!DOCTYPE svg PUBLIC "-//W3C//DTD SVG 1.1//EN"
 "http://www.w3.org/Graphics/SVG/1.1/DTD/svg11.dtd">
<!-- Generated by graphviz version 2.43.0 (0)
 -->
<!-- Title: %3 Pages: 1 -->
<svg width="997pt" height="238pt"
 viewBox="0.00 0.00 996.50 237.74" xmlns="http://www.w3.org/2000/svg" xmlns:xlink="http://www.w3.org/1999/xlink">
<g id="graph0" class="graph" transform="scale(1 1) rotate(0) translate(36 201.74)">
<title>%3</title>
<polygon fill="dimgray" stroke="transparent" points="-36,36 -36,-201.74 960.5,-201.74 960.5,36 -36,36"/>
<text text-anchor="middle" x="462.25" y="-150.54" font-family="Helvetica,sans-Serif" font-size="14.00">Sweep&#39;s Plan &amp; Progress</text>
<!-- start -->
<g id="node1" class="node">
<title>start</title>
</g>
<!-- 2b176b5d&#45;2f25&#45;4dc7&#45;94ef&#45;e418d3c9b968 -->
<g id="node3" class="node">
<title>2b176b5d&#45;2f25&#45;4dc7&#45;94ef&#45;e418d3c9b968</title>
<ellipse fill="#0ee832" stroke="black" cx="217.5" cy="-99.87" rx="77.56" ry="26.74"/>
<text text-anchor="middle" x="217.5" y="-103.67" font-family="Helvetica,sans-Serif" font-size="14.00">✓ Modify</text>
<text text-anchor="middle" x="217.5" y="-88.67" font-family="Helvetica,sans-Serif" font-size="14.00">.env.example</text>
</g>
<!-- start&#45;&gt;2b176b5d&#45;2f25&#45;4dc7&#45;94ef&#45;e418d3c9b968 -->
<g id="edge6" class="edge">
<title>start&#45;&gt;2b176b5d&#45;2f25&#45;4dc7&#45;94ef&#45;e418d3c9b968</title>
<path fill="none" stroke="black" d="M88.33,-99.87C92.18,-99.87 108.94,-99.87 129.19,-99.87"/>
<polygon fill="black" stroke="black" points="129.36,-103.37 139.36,-99.87 129.36,-96.37 129.36,-103.37"/>
<text text-anchor="middle" x="113.86" y="-106.67" font-family="Helvetica,sans-Serif" font-size="14.00">Start</text>
</g>
<!-- end -->
<g id="node2" class="node">
<title>end</title>
</g>
<!-- b9aa384b&#45;5a0d&#45;4581&#45;9d8d&#45;ecaeb61a0ddc -->
<g id="node4" class="node">
<title>b9aa384b&#45;5a0d&#45;4581&#45;9d8d&#45;ecaeb61a0ddc</title>
<ellipse fill="white" stroke="black" cx="470.5" cy="-99.87" rx="73.58" ry="26.74"/>
<text text-anchor="middle" x="470.5" y="-103.67" font-family="Helvetica,sans-Serif" font-size="14.00">▶ Modify</text>
<text text-anchor="middle" x="470.5" y="-88.67" font-family="Helvetica,sans-Serif" font-size="14.00">README.md</text>
</g>
<!-- 2b176b5d&#45;2f25&#45;4dc7&#45;94ef&#45;e418d3c9b968&#45;&gt;b9aa384b&#45;5a0d&#45;4581&#45;9d8d&#45;ecaeb61a0ddc -->
<g id="edge2" class="edge">
<title>2b176b5d&#45;2f25&#45;4dc7&#45;94ef&#45;e418d3c9b968&#45;&gt;b9aa384b&#45;5a0d&#45;4581&#45;9d8d&#45;ecaeb61a0ddc</title>
<path fill="none" stroke="black" d="M295.57,-99.87C325.86,-99.87 356.15,-99.87 386.43,-99.87"/>
<polygon fill="black" stroke="black" points="386.7,-103.37 396.7,-99.87 386.7,-96.37 386.7,-103.37"/>
</g>
<!-- 5038cb59&#45;5af5&#45;4ac6&#45;8140&#45;544f670ac360 -->
<g id="node6" class="node">
<title>5038cb59&#45;5af5&#45;4ac6&#45;8140&#45;544f670ac360</title>
<polygon fill="yellow" stroke="black" points="305,-36 0,-36 0,0 305,0 305,-36"/>
<text text-anchor="middle" x="152.5" y="-14.3" font-family="Helvetica,sans-Serif" font-size="14.00">⋯ Run GitHub Actions for `.env.example`</text>
</g>
<!-- 2b176b5d&#45;2f25&#45;4dc7&#45;94ef&#45;e418d3c9b968&#45;&gt;5038cb59&#45;5af5&#45;4ac6&#45;8140&#45;544f670ac360 -->
<g id="edge1" class="edge">
<title>2b176b5d&#45;2f25&#45;4dc7&#45;94ef&#45;e418d3c9b968&#45;&gt;5038cb59&#45;5af5&#45;4ac6&#45;8140&#45;544f670ac360</title>
<path fill="none" stroke="black" stroke-dasharray="5,2" d="M196.93,-73.6C189.22,-64.13 180.47,-53.37 172.79,-43.93"/>
<polygon fill="black" stroke="black" points="175.39,-41.58 166.36,-36.04 169.96,-46 175.39,-41.58"/>
</g>
<!-- 83633206&#45;d61f&#45;4968&#45;8071&#45;e3639c989fbe -->
<g id="node5" class="node">
<title>83633206&#45;d61f&#45;4968&#45;8071&#45;e3639c989fbe</title>
<ellipse fill="white" stroke="black" cx="714.5" cy="-99.87" rx="68.68" ry="26.74"/>
<text text-anchor="middle" x="714.5" y="-103.67" font-family="Helvetica,sans-Serif" font-size="14.00">▶ Modify</text>
<text text-anchor="middle" x="714.5" y="-88.67" font-family="Helvetica,sans-Serif" font-size="14.00">src/env.d.ts</text>
</g>
<!-- b9aa384b&#45;5a0d&#45;4581&#45;9d8d&#45;ecaeb61a0ddc&#45;&gt;83633206&#45;d61f&#45;4968&#45;8071&#45;e3639c989fbe -->
<g id="edge4" class="edge">
<title>b9aa384b&#45;5a0d&#45;4581&#45;9d8d&#45;ecaeb61a0ddc&#45;&gt;83633206&#45;d61f&#45;4968&#45;8071&#45;e3639c989fbe</title>
<path fill="none" stroke="black" d="M544.37,-99.87C574.72,-99.87 605.07,-99.87 635.42,-99.87"/>
<polygon fill="black" stroke="black" points="635.72,-103.37 645.72,-99.87 635.72,-96.37 635.72,-103.37"/>
</g>
<!-- 61041aab&#45;90c2&#45;4275&#45;b4ee&#45;1ad000180156 -->
<g id="node7" class="node">
<title>61041aab&#45;90c2&#45;4275&#45;b4ee&#45;1ad000180156</title>
<polygon fill="white" stroke="black" points="618,-36 323,-36 323,0 618,0 618,-36"/>
<text text-anchor="middle" x="470.5" y="-14.3" font-family="Helvetica,sans-Serif" font-size="14.00">▶ Run GitHub Actions for `README.md`</text>
</g>
<!-- b9aa384b&#45;5a0d&#45;4581&#45;9d8d&#45;ecaeb61a0ddc&#45;&gt;61041aab&#45;90c2&#45;4275&#45;b4ee&#45;1ad000180156 -->
<g id="edge3" class="edge">
<title>b9aa384b&#45;5a0d&#45;4581&#45;9d8d&#45;ecaeb61a0ddc&#45;&gt;61041aab&#45;90c2&#45;4275&#45;b4ee&#45;1ad000180156</title>
<path fill="none" stroke="black" stroke-dasharray="5,2" d="M470.5,-72.72C470.5,-64.27 470.5,-54.89 470.5,-46.36"/>
<polygon fill="black" stroke="black" points="474,-46.15 470.5,-36.15 467,-46.15 474,-46.15"/>
</g>
<!-- 83633206&#45;d61f&#45;4968&#45;8071&#45;e3639c989fbe&#45;&gt;end -->
<g id="edge7" class="edge">
<title>83633206&#45;d61f&#45;4968&#45;8071&#45;e3639c989fbe&#45;&gt;end</title>
<path fill="none" stroke="black" d="M783.2,-99.87C801.64,-99.87 819.48,-99.87 830.47,-99.87"/>
<polygon fill="black" stroke="black" points="830.77,-103.37 840.77,-99.87 830.77,-96.37 830.77,-103.37"/>
<text text-anchor="middle" x="812.04" y="-106.67" font-family="Helvetica,sans-Serif" font-size="14.00">Finish</text>
</g>
<!-- c5af775c&#45;bf1d&#45;4822&#45;af88&#45;09d31b92fd52 -->
<g id="node8" class="node">
<title>c5af775c&#45;bf1d&#45;4822&#45;af88&#45;09d31b92fd52</title>
<polygon fill="white" stroke="black" points="924.5,-36 636.5,-36 636.5,0 924.5,0 924.5,-36"/>
<text text-anchor="middle" x="780.5" y="-14.3" font-family="Helvetica,sans-Serif" font-size="14.00">▶ Run GitHub Actions for `src/env.d.ts`</text>
</g>
<!-- 83633206&#45;d61f&#45;4968&#45;8071&#45;e3639c989fbe&#45;&gt;c5af775c&#45;bf1d&#45;4822&#45;af88&#45;09d31b92fd52 -->
<g id="edge5" class="edge">
<title>83633206&#45;d61f&#45;4968&#45;8071&#45;e3639c989fbe&#45;&gt;c5af775c&#45;bf1d&#45;4822&#45;af88&#45;09d31b92fd52</title>
<path fill="none" stroke="black" stroke-dasharray="5,2" d="M735.02,-74.04C742.86,-64.54 751.81,-53.72 759.68,-44.19"/>
<polygon fill="black" stroke="black" points="762.6,-46.16 766.27,-36.22 757.2,-41.7 762.6,-46.16"/>
</g>
</g>
</svg>
