<?xml version="1.0" encoding="UTF-8" standalone="no"?>
<!DOCTYPE svg PUBLIC "-//W3C//DTD SVG 1.1//EN"
 "http://www.w3.org/Graphics/SVG/1.1/DTD/svg11.dtd">
<!-- Generated by graphviz version 2.43.0 (0)
 -->
<!-- Title: %3 Pages: 1 -->
<svg width="1049pt" height="238pt"
 viewBox="0.00 0.00 1049.00 237.74" xmlns="http://www.w3.org/2000/svg" xmlns:xlink="http://www.w3.org/1999/xlink">
<g id="graph0" class="graph" transform="scale(1 1) rotate(0) translate(36 201.74)">
<title>%3</title>
<polygon fill="dimgray" stroke="transparent" points="-36,36 -36,-201.74 1013,-201.74 1013,36 -36,36"/>
<text text-anchor="middle" x="488.5" y="-150.54" font-family="Helvetica,sans-Serif" font-size="14.00">Sweep&#39;s Plan &amp; Progress</text>
<!-- start -->
<g id="node1" class="node">
<title>start</title>
</g>
<!-- cf04bc61&#45;e4a1&#45;441d&#45;b21c&#45;1c769927b366 -->
<g id="node3" class="node">
<title>cf04bc61&#45;e4a1&#45;441d&#45;b21c&#45;1c769927b366</title>
<ellipse fill="#0ee832" stroke="black" cx="217.5" cy="-99.87" rx="77.56" ry="26.74"/>
<text text-anchor="middle" x="217.5" y="-103.67" font-family="Helvetica,sans-Serif" font-size="14.00">✓ Modify</text>
<text text-anchor="middle" x="217.5" y="-88.67" font-family="Helvetica,sans-Serif" font-size="14.00">.env.example</text>
</g>
<!-- start&#45;&gt;cf04bc61&#45;e4a1&#45;441d&#45;b21c&#45;1c769927b366 -->
<g id="edge6" class="edge">
<title>start&#45;&gt;cf04bc61&#45;e4a1&#45;441d&#45;b21c&#45;1c769927b366</title>
<path fill="none" stroke="black" d="M88.33,-99.87C92.18,-99.87 108.94,-99.87 129.19,-99.87"/>
<polygon fill="black" stroke="black" points="129.36,-103.37 139.36,-99.87 129.36,-96.37 129.36,-103.37"/>
<text text-anchor="middle" x="113.86" y="-106.67" font-family="Helvetica,sans-Serif" font-size="14.00">Start</text>
</g>
<!-- end -->
<g id="node2" class="node">
<title>end</title>
</g>
<!-- 58d09dbb&#45;2728&#45;4c4c&#45;8048&#45;ed7eddb320a2 -->
<g id="node4" class="node">
<title>58d09dbb&#45;2728&#45;4c4c&#45;8048&#45;ed7eddb320a2</title>
<ellipse fill="white" stroke="black" cx="470.5" cy="-99.87" rx="73.58" ry="26.74"/>
<text text-anchor="middle" x="470.5" y="-103.67" font-family="Helvetica,sans-Serif" font-size="14.00">▶ Modify</text>
<text text-anchor="middle" x="470.5" y="-88.67" font-family="Helvetica,sans-Serif" font-size="14.00">README.md</text>
</g>
<!-- cf04bc61&#45;e4a1&#45;441d&#45;b21c&#45;1c769927b366&#45;&gt;58d09dbb&#45;2728&#45;4c4c&#45;8048&#45;ed7eddb320a2 -->
<g id="edge2" class="edge">
<title>cf04bc61&#45;e4a1&#45;441d&#45;b21c&#45;1c769927b366&#45;&gt;58d09dbb&#45;2728&#45;4c4c&#45;8048&#45;ed7eddb320a2</title>
<path fill="none" stroke="black" d="M295.57,-99.87C325.86,-99.87 356.15,-99.87 386.43,-99.87"/>
<polygon fill="black" stroke="black" points="386.7,-103.37 396.7,-99.87 386.7,-96.37 386.7,-103.37"/>
</g>
<!-- 0bd4bca1&#45;556e&#45;4cbc&#45;b916&#45;f03908a7b9b2 -->
<g id="node6" class="node">
<title>0bd4bca1&#45;556e&#45;4cbc&#45;b916&#45;f03908a7b9b2</title>
<polygon fill="yellow" stroke="black" points="305,-36 0,-36 0,0 305,0 305,-36"/>
<text text-anchor="middle" x="152.5" y="-14.3" font-family="Helvetica,sans-Serif" font-size="14.00">⋯ Run GitHub Actions for `.env.example`</text>
</g>
<!-- cf04bc61&#45;e4a1&#45;441d&#45;b21c&#45;1c769927b366&#45;&gt;0bd4bca1&#45;556e&#45;4cbc&#45;b916&#45;f03908a7b9b2 -->
<g id="edge1" class="edge">
<title>cf04bc61&#45;e4a1&#45;441d&#45;b21c&#45;1c769927b366&#45;&gt;0bd4bca1&#45;556e&#45;4cbc&#45;b916&#45;f03908a7b9b2</title>
<path fill="none" stroke="black" stroke-dasharray="5,2" d="M196.93,-73.6C189.22,-64.13 180.47,-53.37 172.79,-43.93"/>
<polygon fill="black" stroke="black" points="175.39,-41.58 166.36,-36.04 169.96,-46 175.39,-41.58"/>
</g>
<!-- c8298582&#45;a46b&#45;4077&#45;bc38&#45;96f092f177ee -->
<g id="node5" class="node">
<title>c8298582&#45;a46b&#45;4077&#45;bc38&#45;96f092f177ee</title>
<ellipse fill="white" stroke="black" cx="746.5" cy="-99.87" rx="106.13" ry="26.74"/>
<text text-anchor="middle" x="746.5" y="-103.67" font-family="Helvetica,sans-Serif" font-size="14.00">▶ Modify</text>
<text text-anchor="middle" x="746.5" y="-88.67" font-family="Helvetica,sans-Serif" font-size="14.00">README.zh&#45;CN.md</text>
</g>
<!-- 58d09dbb&#45;2728&#45;4c4c&#45;8048&#45;ed7eddb320a2&#45;&gt;c8298582&#45;a46b&#45;4077&#45;bc38&#45;96f092f177ee -->
<g id="edge4" class="edge">
<title>58d09dbb&#45;2728&#45;4c4c&#45;8048&#45;ed7eddb320a2&#45;&gt;c8298582&#45;a46b&#45;4077&#45;bc38&#45;96f092f177ee</title>
<path fill="none" stroke="black" d="M544.08,-99.87C572.73,-99.87 601.37,-99.87 630.02,-99.87"/>
<polygon fill="black" stroke="black" points="630.15,-103.37 640.15,-99.87 630.15,-96.37 630.15,-103.37"/>
</g>
<!-- 2c8b2baa&#45;3b3b&#45;438b&#45;b0c5&#45;841f76db7172 -->
<g id="node7" class="node">
<title>2c8b2baa&#45;3b3b&#45;438b&#45;b0c5&#45;841f76db7172</title>
<polygon fill="white" stroke="black" points="618,-36 323,-36 323,0 618,0 618,-36"/>
<text text-anchor="middle" x="470.5" y="-14.3" font-family="Helvetica,sans-Serif" font-size="14.00">▶ Run GitHub Actions for `README.md`</text>
</g>
<!-- 58d09dbb&#45;2728&#45;4c4c&#45;8048&#45;ed7eddb320a2&#45;&gt;2c8b2baa&#45;3b3b&#45;438b&#45;b0c5&#45;841f76db7172 -->
<g id="edge3" class="edge">
<title>58d09dbb&#45;2728&#45;4c4c&#45;8048&#45;ed7eddb320a2&#45;&gt;2c8b2baa&#45;3b3b&#45;438b&#45;b0c5&#45;841f76db7172</title>
<path fill="none" stroke="black" stroke-dasharray="5,2" d="M470.5,-72.72C470.5,-64.27 470.5,-54.89 470.5,-46.36"/>
<polygon fill="black" stroke="black" points="474,-46.15 470.5,-36.15 467,-46.15 474,-46.15"/>
</g>
<!-- c8298582&#45;a46b&#45;4077&#45;bc38&#45;96f092f177ee&#45;&gt;end -->
<g id="edge7" class="edge">
<title>c8298582&#45;a46b&#45;4077&#45;bc38&#45;96f092f177ee&#45;&gt;end</title>
<path fill="none" stroke="black" d="M852.68,-99.87C871.88,-99.87 889.13,-99.87 899.69,-99.87"/>
<polygon fill="black" stroke="black" points="899.82,-103.37 909.82,-99.87 899.82,-96.37 899.82,-103.37"/>
<text text-anchor="middle" x="881.28" y="-106.67" font-family="Helvetica,sans-Serif" font-size="14.00">Finish</text>
</g>
<!-- d320305c&#45;a3ac&#45;42c4&#45;804d&#45;07a1db3f6c74 -->
<g id="node8" class="node">
<title>d320305c&#45;a3ac&#45;42c4&#45;804d&#45;07a1db3f6c74</title>
<polygon fill="white" stroke="black" points="977,-36 636,-36 636,0 977,0 977,-36"/>
<text text-anchor="middle" x="806.5" y="-14.3" font-family="Helvetica,sans-Serif" font-size="14.00">▶ Run GitHub Actions for `README.zh&#45;CN.md`</text>
</g>
<!-- c8298582&#45;a46b&#45;4077&#45;bc38&#45;96f092f177ee&#45;&gt;d320305c&#45;a3ac&#45;42c4&#45;804d&#45;07a1db3f6c74 -->
<g id="edge5" class="edge">
<title>c8298582&#45;a46b&#45;4077&#45;bc38&#45;96f092f177ee&#45;&gt;d320305c&#45;a3ac&#45;42c4&#45;804d&#45;07a1db3f6c74</title>
<path fill="none" stroke="black" stroke-dasharray="5,2" d="M765.81,-73.16C772.74,-63.94 780.54,-53.56 787.44,-44.37"/>
<polygon fill="black" stroke="black" points="790.27,-46.43 793.48,-36.34 784.67,-42.23 790.27,-46.43"/>
</g>
</g>
</svg>
