<?xml version="1.0" encoding="UTF-8" standalone="no"?>
<!DOCTYPE svg PUBLIC "-//W3C//DTD SVG 1.1//EN"
 "http://www.w3.org/Graphics/SVG/1.1/DTD/svg11.dtd">
<!-- Generated by graphviz version 2.43.0 (0)
 -->
<!-- Title: %3 Pages: 1 -->
<svg width="864pt" height="238pt"
 viewBox="0.00 0.00 863.50 237.74" xmlns="http://www.w3.org/2000/svg" xmlns:xlink="http://www.w3.org/1999/xlink">
<g id="graph0" class="graph" transform="scale(1 1) rotate(0) translate(36 201.74)">
<title>%3</title>
<polygon fill="dimgray" stroke="transparent" points="-36,36 -36,-201.74 827.5,-201.74 827.5,36 -36,36"/>
<text text-anchor="middle" x="395.75" y="-150.54" font-family="Helvetica,sans-Serif" font-size="14.00">Sweep&#39;s Plan &amp; Progress</text>
<!-- start -->
<g id="node1" class="node">
<title>start</title>
</g>
<!-- 8fccbfc7&#45;d3ab&#45;407a&#45;9a76&#45;7ccb5bccb27a -->
<g id="node3" class="node">
<title>8fccbfc7&#45;d3ab&#45;407a&#45;9a76&#45;7ccb5bccb27a</title>
<ellipse fill="#0ee832" stroke="black" cx="241.5" cy="-99.87" rx="138.69" ry="26.74"/>
<text text-anchor="middle" x="241.5" y="-103.67" font-family="Helvetica,sans-Serif" font-size="14.00">✓ Create</text>
<text text-anchor="middle" x="241.5" y="-88.67" font-family="Helvetica,sans-Serif" font-size="14.00">src/utils/tiktoken&#45;server.ts</text>
</g>
<!-- start&#45;&gt;8fccbfc7&#45;d3ab&#45;407a&#45;9a76&#45;7ccb5bccb27a -->
<g id="edge4" class="edge">
<title>start&#45;&gt;8fccbfc7&#45;d3ab&#45;407a&#45;9a76&#45;7ccb5bccb27a</title>
<path fill="none" stroke="black" d="M51.05,-99.87C54.19,-99.87 70.58,-99.87 92.53,-99.87"/>
<polygon fill="black" stroke="black" points="92.61,-103.37 102.61,-99.87 92.61,-96.37 92.61,-103.37"/>
<text text-anchor="middle" x="76.95" y="-106.67" font-family="Helvetica,sans-Serif" font-size="14.00">Start</text>
</g>
<!-- end -->
<g id="node2" class="node">
<title>end</title>
</g>
<!-- 3108688c&#45;02e3&#45;43df&#45;ad00&#45;b25d036cee9d -->
<g id="node4" class="node">
<title>3108688c&#45;02e3&#45;43df&#45;ad00&#45;b25d036cee9d</title>
<ellipse fill="white" stroke="black" cx="576.5" cy="-99.87" rx="136.44" ry="26.74"/>
<text text-anchor="middle" x="576.5" y="-103.67" font-family="Helvetica,sans-Serif" font-size="14.00">▶ Modify</text>
<text text-anchor="middle" x="576.5" y="-88.67" font-family="Helvetica,sans-Serif" font-size="14.00">src/pages/api/generate.ts</text>
</g>
<!-- 8fccbfc7&#45;d3ab&#45;407a&#45;9a76&#45;7ccb5bccb27a&#45;&gt;3108688c&#45;02e3&#45;43df&#45;ad00&#45;b25d036cee9d -->
<g id="edge2" class="edge">
<title>8fccbfc7&#45;d3ab&#45;407a&#45;9a76&#45;7ccb5bccb27a&#45;&gt;3108688c&#45;02e3&#45;43df&#45;ad00&#45;b25d036cee9d</title>
<path fill="none" stroke="black" d="M380.21,-99.87C396.72,-99.87 413.23,-99.87 429.74,-99.87"/>
<polygon fill="black" stroke="black" points="430.02,-103.37 440.02,-99.87 430.02,-96.37 430.02,-103.37"/>
</g>
<!-- a2146a6e&#45;61b3&#45;4104&#45;b076&#45;59b44b4aacbd -->
<g id="node5" class="node">
<title>a2146a6e&#45;61b3&#45;4104&#45;b076&#45;59b44b4aacbd</title>
<polygon fill="#0ee832" stroke="black" points="389,-36 0,-36 0,0 389,0 389,-36"/>
<text text-anchor="middle" x="194.5" y="-14.3" font-family="Helvetica,sans-Serif" font-size="14.00">✓ Run GitHub Actions for `src/utils/tiktoken&#45;server.ts`</text>
</g>
<!-- 8fccbfc7&#45;d3ab&#45;407a&#45;9a76&#45;7ccb5bccb27a&#45;&gt;a2146a6e&#45;61b3&#45;4104&#45;b076&#45;59b44b4aacbd -->
<g id="edge1" class="edge">
<title>8fccbfc7&#45;d3ab&#45;407a&#45;9a76&#45;7ccb5bccb27a&#45;&gt;a2146a6e&#45;61b3&#45;4104&#45;b076&#45;59b44b4aacbd</title>
<path fill="none" stroke="black" stroke-dasharray="5,2" d="M226.37,-73.16C221.11,-64.22 215.21,-54.2 209.93,-45.22"/>
<polygon fill="black" stroke="black" points="212.79,-43.18 204.7,-36.34 206.76,-46.73 212.79,-43.18"/>
</g>
<!-- 3108688c&#45;02e3&#45;43df&#45;ad00&#45;b25d036cee9d&#45;&gt;end -->
<g id="edge5" class="edge">
<title>3108688c&#45;02e3&#45;43df&#45;ad00&#45;b25d036cee9d&#45;&gt;end</title>
<path fill="none" stroke="black" d="M713.08,-99.87C732.48,-99.87 749.32,-99.87 759.66,-99.87"/>
<polygon fill="black" stroke="black" points="759.85,-103.37 769.85,-99.87 759.85,-96.37 759.85,-103.37"/>
<text text-anchor="middle" x="741.49" y="-106.67" font-family="Helvetica,sans-Serif" font-size="14.00">Finish</text>
</g>
<!-- 6a6ad5ee&#45;8a7b&#45;4cad&#45;adb4&#45;a29da5377723 -->
<g id="node6" class="node">
<title>6a6ad5ee&#45;8a7b&#45;4cad&#45;adb4&#45;a29da5377723</title>
<polygon fill="white" stroke="black" points="791.5,-36 407.5,-36 407.5,0 791.5,0 791.5,-36"/>
<text text-anchor="middle" x="599.5" y="-14.3" font-family="Helvetica,sans-Serif" font-size="14.00">▶ Run GitHub Actions for `src/pages/api/generate.ts`</text>
</g>
<!-- 3108688c&#45;02e3&#45;43df&#45;ad00&#45;b25d036cee9d&#45;&gt;6a6ad5ee&#45;8a7b&#45;4cad&#45;adb4&#45;a29da5377723 -->
<g id="edge3" class="edge">
<title>3108688c&#45;02e3&#45;43df&#45;ad00&#45;b25d036cee9d&#45;&gt;6a6ad5ee&#45;8a7b&#45;4cad&#45;adb4&#45;a29da5377723</title>
<path fill="none" stroke="black" stroke-dasharray="5,2" d="M584.03,-72.72C586.52,-64.08 589.28,-54.47 591.78,-45.79"/>
<polygon fill="black" stroke="black" points="595.16,-46.72 594.56,-36.15 588.43,-44.79 595.16,-46.72"/>
</g>
</g>
</svg>
