<?xml version="1.0" encoding="UTF-8" standalone="no"?>
<!DOCTYPE svg PUBLIC "-//W3C//DTD SVG 1.1//EN"
 "http://www.w3.org/Graphics/SVG/1.1/DTD/svg11.dtd">
<!-- Generated by graphviz version 2.43.0 (0)
 -->
<!-- Title: %3 Pages: 1 -->
<svg width="1045pt" height="238pt"
 viewBox="0.00 0.00 1045.00 237.74" xmlns="http://www.w3.org/2000/svg" xmlns:xlink="http://www.w3.org/1999/xlink">
<g id="graph0" class="graph" transform="scale(1 1) rotate(0) translate(36 201.74)">
<title>%3</title>
<polygon fill="dimgray" stroke="transparent" points="-36,36 -36,-201.74 1009,-201.74 1009,36 -36,36"/>
<text text-anchor="middle" x="486.5" y="-150.54" font-family="Helvetica,sans-Serif" font-size="14.00">Sweep&#39;s Plan &amp; Progress</text>
<!-- start -->
<g id="node1" class="node">
<title>start</title>
</g>
<!-- 67148bc9&#45;e7d2&#45;4ece&#45;98de&#45;9601d03f6432 -->
<g id="node3" class="node">
<title>67148bc9&#45;e7d2&#45;4ece&#45;98de&#45;9601d03f6432</title>
<ellipse fill="yellow" stroke="black" cx="214.5" cy="-99.87" rx="77.56" ry="26.74"/>
<text text-anchor="middle" x="214.5" y="-103.67" font-family="Helvetica,sans-Serif" font-size="14.00">⋯ Modify</text>
<text text-anchor="middle" x="214.5" y="-88.67" font-family="Helvetica,sans-Serif" font-size="14.00">.env.example</text>
</g>
<!-- start&#45;&gt;67148bc9&#45;e7d2&#45;4ece&#45;98de&#45;9601d03f6432 -->
<g id="edge6" class="edge">
<title>start&#45;&gt;67148bc9&#45;e7d2&#45;4ece&#45;98de&#45;9601d03f6432</title>
<path fill="none" stroke="black" d="M85.33,-99.87C89.18,-99.87 105.94,-99.87 126.19,-99.87"/>
<polygon fill="black" stroke="black" points="126.36,-103.37 136.36,-99.87 126.36,-96.37 126.36,-103.37"/>
<text text-anchor="middle" x="110.86" y="-106.67" font-family="Helvetica,sans-Serif" font-size="14.00">Start</text>
</g>
<!-- end -->
<g id="node2" class="node">
<title>end</title>
</g>
<!-- 6aef0557&#45;fbb7&#45;4f92&#45;ae22&#45;313dc7d6c772 -->
<g id="node4" class="node">
<title>6aef0557&#45;fbb7&#45;4f92&#45;ae22&#45;313dc7d6c772</title>
<ellipse fill="white" stroke="black" cx="466.5" cy="-99.87" rx="73.58" ry="26.74"/>
<text text-anchor="middle" x="466.5" y="-103.67" font-family="Helvetica,sans-Serif" font-size="14.00">▶ Modify</text>
<text text-anchor="middle" x="466.5" y="-88.67" font-family="Helvetica,sans-Serif" font-size="14.00">README.md</text>
</g>
<!-- 67148bc9&#45;e7d2&#45;4ece&#45;98de&#45;9601d03f6432&#45;&gt;6aef0557&#45;fbb7&#45;4f92&#45;ae22&#45;313dc7d6c772 -->
<g id="edge2" class="edge">
<title>67148bc9&#45;e7d2&#45;4ece&#45;98de&#45;9601d03f6432&#45;&gt;6aef0557&#45;fbb7&#45;4f92&#45;ae22&#45;313dc7d6c772</title>
<path fill="none" stroke="black" d="M292.76,-99.87C322.74,-99.87 352.72,-99.87 382.7,-99.87"/>
<polygon fill="black" stroke="black" points="382.86,-103.37 392.86,-99.87 382.86,-96.37 382.86,-103.37"/>
</g>
<!-- 0646310e&#45;0f35&#45;419c&#45;8363&#45;d703c8f06a33 -->
<g id="node6" class="node">
<title>0646310e&#45;0f35&#45;419c&#45;8363&#45;d703c8f06a33</title>
<polygon fill="white" stroke="black" points="301,-36 0,-36 0,0 301,0 301,-36"/>
<text text-anchor="middle" x="150.5" y="-14.3" font-family="Helvetica,sans-Serif" font-size="14.00">▶ Run GitHub Actions for `.env.example`</text>
</g>
<!-- 67148bc9&#45;e7d2&#45;4ece&#45;98de&#45;9601d03f6432&#45;&gt;0646310e&#45;0f35&#45;419c&#45;8363&#45;d703c8f06a33 -->
<g id="edge1" class="edge">
<title>67148bc9&#45;e7d2&#45;4ece&#45;98de&#45;9601d03f6432&#45;&gt;0646310e&#45;0f35&#45;419c&#45;8363&#45;d703c8f06a33</title>
<path fill="none" stroke="black" stroke-dasharray="5,2" d="M194.25,-73.6C186.66,-64.13 178.04,-53.37 170.48,-43.93"/>
<polygon fill="black" stroke="black" points="173.14,-41.65 164.15,-36.04 167.67,-46.03 173.14,-41.65"/>
</g>
<!-- e55414cf&#45;b1a9&#45;4fcf&#45;84c9&#45;0bcebf839d98 -->
<g id="node5" class="node">
<title>e55414cf&#45;b1a9&#45;4fcf&#45;84c9&#45;0bcebf839d98</title>
<ellipse fill="white" stroke="black" cx="742.5" cy="-99.87" rx="106.13" ry="26.74"/>
<text text-anchor="middle" x="742.5" y="-103.67" font-family="Helvetica,sans-Serif" font-size="14.00">▶ Modify</text>
<text text-anchor="middle" x="742.5" y="-88.67" font-family="Helvetica,sans-Serif" font-size="14.00">README.zh&#45;CN.md</text>
</g>
<!-- 6aef0557&#45;fbb7&#45;4f92&#45;ae22&#45;313dc7d6c772&#45;&gt;e55414cf&#45;b1a9&#45;4fcf&#45;84c9&#45;0bcebf839d98 -->
<g id="edge4" class="edge">
<title>6aef0557&#45;fbb7&#45;4f92&#45;ae22&#45;313dc7d6c772&#45;&gt;e55414cf&#45;b1a9&#45;4fcf&#45;84c9&#45;0bcebf839d98</title>
<path fill="none" stroke="black" d="M540.08,-99.87C568.73,-99.87 597.37,-99.87 626.02,-99.87"/>
<polygon fill="black" stroke="black" points="626.15,-103.37 636.15,-99.87 626.15,-96.37 626.15,-103.37"/>
</g>
<!-- 42dc4013&#45;7024&#45;4432&#45;b03d&#45;28fe51e55476 -->
<g id="node7" class="node">
<title>42dc4013&#45;7024&#45;4432&#45;b03d&#45;28fe51e55476</title>
<polygon fill="white" stroke="black" points="614,-36 319,-36 319,0 614,0 614,-36"/>
<text text-anchor="middle" x="466.5" y="-14.3" font-family="Helvetica,sans-Serif" font-size="14.00">▶ Run GitHub Actions for `README.md`</text>
</g>
<!-- 6aef0557&#45;fbb7&#45;4f92&#45;ae22&#45;313dc7d6c772&#45;&gt;42dc4013&#45;7024&#45;4432&#45;b03d&#45;28fe51e55476 -->
<g id="edge3" class="edge">
<title>6aef0557&#45;fbb7&#45;4f92&#45;ae22&#45;313dc7d6c772&#45;&gt;42dc4013&#45;7024&#45;4432&#45;b03d&#45;28fe51e55476</title>
<path fill="none" stroke="black" stroke-dasharray="5,2" d="M466.5,-72.72C466.5,-64.27 466.5,-54.89 466.5,-46.36"/>
<polygon fill="black" stroke="black" points="470,-46.15 466.5,-36.15 463,-46.15 470,-46.15"/>
</g>
<!-- e55414cf&#45;b1a9&#45;4fcf&#45;84c9&#45;0bcebf839d98&#45;&gt;end -->
<g id="edge7" class="edge">
<title>e55414cf&#45;b1a9&#45;4fcf&#45;84c9&#45;0bcebf839d98&#45;&gt;end</title>
<path fill="none" stroke="black" d="M848.68,-99.87C867.88,-99.87 885.13,-99.87 895.69,-99.87"/>
<polygon fill="black" stroke="black" points="895.82,-103.37 905.82,-99.87 895.82,-96.37 895.82,-103.37"/>
<text text-anchor="middle" x="877.28" y="-106.67" font-family="Helvetica,sans-Serif" font-size="14.00">Finish</text>
</g>
<!-- f09d17c0&#45;42c3&#45;4c3b&#45;af60&#45;34f803c51b0d -->
<g id="node8" class="node">
<title>f09d17c0&#45;42c3&#45;4c3b&#45;af60&#45;34f803c51b0d</title>
<polygon fill="white" stroke="black" points="973,-36 632,-36 632,0 973,0 973,-36"/>
<text text-anchor="middle" x="802.5" y="-14.3" font-family="Helvetica,sans-Serif" font-size="14.00">▶ Run GitHub Actions for `README.zh&#45;CN.md`</text>
</g>
<!-- e55414cf&#45;b1a9&#45;4fcf&#45;84c9&#45;0bcebf839d98&#45;&gt;f09d17c0&#45;42c3&#45;4c3b&#45;af60&#45;34f803c51b0d -->
<g id="edge5" class="edge">
<title>e55414cf&#45;b1a9&#45;4fcf&#45;84c9&#45;0bcebf839d98&#45;&gt;f09d17c0&#45;42c3&#45;4c3b&#45;af60&#45;34f803c51b0d</title>
<path fill="none" stroke="black" stroke-dasharray="5,2" d="M761.81,-73.16C768.74,-63.94 776.54,-53.56 783.44,-44.37"/>
<polygon fill="black" stroke="black" points="786.27,-46.43 789.48,-36.34 780.67,-42.23 786.27,-46.43"/>
</g>
</g>
</svg>
