<?xml version="1.0" encoding="UTF-8" standalone="no"?>
<!DOCTYPE svg PUBLIC "-//W3C//DTD SVG 1.1//EN"
 "http://www.w3.org/Graphics/SVG/1.1/DTD/svg11.dtd">
<!-- Generated by graphviz version 2.43.0 (0)
 -->
<!-- Title: %3 Pages: 1 -->
<svg width="998pt" height="238pt"
 viewBox="0.00 0.00 998.00 237.74" xmlns="http://www.w3.org/2000/svg" xmlns:xlink="http://www.w3.org/1999/xlink">
<g id="graph0" class="graph" transform="scale(1 1) rotate(0) translate(36 201.74)">
<title>%3</title>
<polygon fill="dimgray" stroke="transparent" points="-36,36 -36,-201.74 962,-201.74 962,36 -36,36"/>
<text text-anchor="middle" x="463" y="-150.54" font-family="Helvetica,sans-Serif" font-size="14.00">Sweep&#39;s Plan &amp; Progress</text>
<!-- start -->
<g id="node1" class="node">
<title>start</title>
</g>
<!-- 2b176b5d&#45;2f25&#45;4dc7&#45;94ef&#45;e418d3c9b968 -->
<g id="node3" class="node">
<title>2b176b5d&#45;2f25&#45;4dc7&#45;94ef&#45;e418d3c9b968</title>
<ellipse fill="#0ee832" stroke="black" cx="217" cy="-99.87" rx="77.56" ry="26.74"/>
<text text-anchor="middle" x="217" y="-103.67" font-family="Helvetica,sans-Serif" font-size="14.00">✓ Modify</text>
<text text-anchor="middle" x="217" y="-88.67" font-family="Helvetica,sans-Serif" font-size="14.00">.env.example</text>
</g>
<!-- start&#45;&gt;2b176b5d&#45;2f25&#45;4dc7&#45;94ef&#45;e418d3c9b968 -->
<g id="edge6" class="edge">
<title>start&#45;&gt;2b176b5d&#45;2f25&#45;4dc7&#45;94ef&#45;e418d3c9b968</title>
<path fill="none" stroke="black" d="M87.83,-99.87C91.68,-99.87 108.44,-99.87 128.69,-99.87"/>
<polygon fill="black" stroke="black" points="128.86,-103.37 138.86,-99.87 128.86,-96.37 128.86,-103.37"/>
<text text-anchor="middle" x="113.36" y="-106.67" font-family="Helvetica,sans-Serif" font-size="14.00">Start</text>
</g>
<!-- end -->
<g id="node2" class="node">
<title>end</title>
</g>
<!-- b9aa384b&#45;5a0d&#45;4581&#45;9d8d&#45;ecaeb61a0ddc -->
<g id="node4" class="node">
<title>b9aa384b&#45;5a0d&#45;4581&#45;9d8d&#45;ecaeb61a0ddc</title>
<ellipse fill="#0ee832" stroke="black" cx="470" cy="-99.87" rx="73.58" ry="26.74"/>
<text text-anchor="middle" x="470" y="-103.67" font-family="Helvetica,sans-Serif" font-size="14.00">✓ Modify</text>
<text text-anchor="middle" x="470" y="-88.67" font-family="Helvetica,sans-Serif" font-size="14.00">README.md</text>
</g>
<!-- 2b176b5d&#45;2f25&#45;4dc7&#45;94ef&#45;e418d3c9b968&#45;&gt;b9aa384b&#45;5a0d&#45;4581&#45;9d8d&#45;ecaeb61a0ddc -->
<g id="edge2" class="edge">
<title>2b176b5d&#45;2f25&#45;4dc7&#45;94ef&#45;e418d3c9b968&#45;&gt;b9aa384b&#45;5a0d&#45;4581&#45;9d8d&#45;ecaeb61a0ddc</title>
<path fill="none" stroke="black" d="M295.07,-99.87C325.36,-99.87 355.65,-99.87 385.93,-99.87"/>
<polygon fill="black" stroke="black" points="386.2,-103.37 396.2,-99.87 386.2,-96.37 386.2,-103.37"/>
</g>
<!-- 5038cb59&#45;5af5&#45;4ac6&#45;8140&#45;544f670ac360 -->
<g id="node6" class="node">
<title>5038cb59&#45;5af5&#45;4ac6&#45;8140&#45;544f670ac360</title>
<polygon fill="#0ee832" stroke="black" points="302,-36 0,-36 0,0 302,0 302,-36"/>
<text text-anchor="middle" x="151" y="-14.3" font-family="Helvetica,sans-Serif" font-size="14.00">✓ Run GitHub Actions for `.env.example`</text>
</g>
<!-- 2b176b5d&#45;2f25&#45;4dc7&#45;94ef&#45;e418d3c9b968&#45;&gt;5038cb59&#45;5af5&#45;4ac6&#45;8140&#45;544f670ac360 -->
<g id="edge1" class="edge">
<title>2b176b5d&#45;2f25&#45;4dc7&#45;94ef&#45;e418d3c9b968&#45;&gt;5038cb59&#45;5af5&#45;4ac6&#45;8140&#45;544f670ac360</title>
<path fill="none" stroke="black" stroke-dasharray="5,2" d="M196.12,-73.6C188.29,-64.13 179.4,-53.37 171.6,-43.93"/>
<polygon fill="black" stroke="black" points="174.15,-41.52 165.08,-36.04 168.75,-45.97 174.15,-41.52"/>
</g>
<!-- 83633206&#45;d61f&#45;4968&#45;8071&#45;e3639c989fbe -->
<g id="node5" class="node">
<title>83633206&#45;d61f&#45;4968&#45;8071&#45;e3639c989fbe</title>
<ellipse fill="white" stroke="black" cx="715" cy="-99.87" rx="68.68" ry="26.74"/>
<text text-anchor="middle" x="715" y="-103.67" font-family="Helvetica,sans-Serif" font-size="14.00">▶ Modify</text>
<text text-anchor="middle" x="715" y="-88.67" font-family="Helvetica,sans-Serif" font-size="14.00">src/env.d.ts</text>
</g>
<!-- b9aa384b&#45;5a0d&#45;4581&#45;9d8d&#45;ecaeb61a0ddc&#45;&gt;83633206&#45;d61f&#45;4968&#45;8071&#45;e3639c989fbe -->
<g id="edge4" class="edge">
<title>b9aa384b&#45;5a0d&#45;4581&#45;9d8d&#45;ecaeb61a0ddc&#45;&gt;83633206&#45;d61f&#45;4968&#45;8071&#45;e3639c989fbe</title>
<path fill="none" stroke="black" d="M543.69,-99.87C574.59,-99.87 605.48,-99.87 636.38,-99.87"/>
<polygon fill="black" stroke="black" points="636.41,-103.37 646.41,-99.87 636.41,-96.37 636.41,-103.37"/>
</g>
<!-- 61041aab&#45;90c2&#45;4275&#45;b4ee&#45;1ad000180156 -->
<g id="node7" class="node">
<title>61041aab&#45;90c2&#45;4275&#45;b4ee&#45;1ad000180156</title>
<polygon fill="yellow" stroke="black" points="619.5,-36 320.5,-36 320.5,0 619.5,0 619.5,-36"/>
<text text-anchor="middle" x="470" y="-14.3" font-family="Helvetica,sans-Serif" font-size="14.00">⋯ Run GitHub Actions for `README.md`</text>
</g>
<!-- b9aa384b&#45;5a0d&#45;4581&#45;9d8d&#45;ecaeb61a0ddc&#45;&gt;61041aab&#45;90c2&#45;4275&#45;b4ee&#45;1ad000180156 -->
<g id="edge3" class="edge">
<title>b9aa384b&#45;5a0d&#45;4581&#45;9d8d&#45;ecaeb61a0ddc&#45;&gt;61041aab&#45;90c2&#45;4275&#45;b4ee&#45;1ad000180156</title>
<path fill="none" stroke="black" stroke-dasharray="5,2" d="M470,-72.72C470,-64.27 470,-54.89 470,-46.36"/>
<polygon fill="black" stroke="black" points="473.5,-46.15 470,-36.15 466.5,-46.15 473.5,-46.15"/>
</g>
<!-- 83633206&#45;d61f&#45;4968&#45;8071&#45;e3639c989fbe&#45;&gt;end -->
<g id="edge7" class="edge">
<title>83633206&#45;d61f&#45;4968&#45;8071&#45;e3639c989fbe&#45;&gt;end</title>
<path fill="none" stroke="black" d="M783.7,-99.87C802.14,-99.87 819.98,-99.87 830.97,-99.87"/>
<polygon fill="black" stroke="black" points="831.27,-103.37 841.27,-99.87 831.27,-96.37 831.27,-103.37"/>
<text text-anchor="middle" x="812.54" y="-106.67" font-family="Helvetica,sans-Serif" font-size="14.00">Finish</text>
</g>
<!-- c5af775c&#45;bf1d&#45;4822&#45;af88&#45;09d31b92fd52 -->
<g id="node8" class="node">
<title>c5af775c&#45;bf1d&#45;4822&#45;af88&#45;09d31b92fd52</title>
<polygon fill="white" stroke="black" points="926,-36 638,-36 638,0 926,0 926,-36"/>
<text text-anchor="middle" x="782" y="-14.3" font-family="Helvetica,sans-Serif" font-size="14.00">▶ Run GitHub Actions for `src/env.d.ts`</text>
</g>
<!-- 83633206&#45;d61f&#45;4968&#45;8071&#45;e3639c989fbe&#45;&gt;c5af775c&#45;bf1d&#45;4822&#45;af88&#45;09d31b92fd52 -->
<g id="edge5" class="edge">
<title>83633206&#45;d61f&#45;4968&#45;8071&#45;e3639c989fbe&#45;&gt;c5af775c&#45;bf1d&#45;4822&#45;af88&#45;09d31b92fd52</title>
<path fill="none" stroke="black" stroke-dasharray="5,2" d="M735.83,-74.04C743.87,-64.45 753.06,-53.5 761.11,-43.9"/>
<polygon fill="black" stroke="black" points="763.81,-46.13 767.55,-36.22 758.44,-41.64 763.81,-46.13"/>
</g>
</g>
</svg>
