<?xml version="1.0" encoding="UTF-8" standalone="no"?>
<!DOCTYPE svg PUBLIC "-//W3C//DTD SVG 1.1//EN"
 "http://www.w3.org/Graphics/SVG/1.1/DTD/svg11.dtd">
<!-- Generated by graphviz version 2.43.0 (0)
 -->
<!-- Title: %3 Pages: 1 -->
<svg width="818pt" height="238pt"
 viewBox="0.00 0.00 817.50 237.74" xmlns="http://www.w3.org/2000/svg" xmlns:xlink="http://www.w3.org/1999/xlink">
<g id="graph0" class="graph" transform="scale(1 1) rotate(0) translate(36 201.74)">
<title>%3</title>
<polygon fill="dimgray" stroke="transparent" points="-36,36 -36,-201.74 781.5,-201.74 781.5,36 -36,36"/>
<text text-anchor="middle" x="372.75" y="-150.54" font-family="Helvetica,sans-Serif" font-size="14.00">Sweep&#39;s Plan &amp; Progress</text>
<!-- start -->
<g id="node1" class="node">
<title>start</title>
</g>
<!-- 6b0558fc&#45;f299&#45;416e&#45;a243&#45;be16cd35863d -->
<g id="node3" class="node">
<title>6b0558fc&#45;f299&#45;416e&#45;a243&#45;be16cd35863d</title>
<ellipse fill="#0ee832" stroke="black" cx="246" cy="-99.87" rx="136.44" ry="26.74"/>
<text text-anchor="middle" x="246" y="-103.67" font-family="Helvetica,sans-Serif" font-size="14.00">✓ Modify</text>
<text text-anchor="middle" x="246" y="-88.67" font-family="Helvetica,sans-Serif" font-size="14.00">src/pages/api/generate.ts</text>
</g>
<!-- start&#45;&gt;6b0558fc&#45;f299&#45;416e&#45;a243&#45;be16cd35863d -->
<g id="edge4" class="edge">
<title>start&#45;&gt;6b0558fc&#45;f299&#45;416e&#45;a243&#45;be16cd35863d</title>
<path fill="none" stroke="black" d="M58.54,-99.87C61.62,-99.87 77.62,-99.87 99.08,-99.87"/>
<polygon fill="black" stroke="black" points="99.29,-103.37 109.29,-99.87 99.29,-96.37 99.29,-103.37"/>
<text text-anchor="middle" x="84.01" y="-106.67" font-family="Helvetica,sans-Serif" font-size="14.00">Start</text>
</g>
<!-- end -->
<g id="node2" class="node">
<title>end</title>
</g>
<!-- d3392cc5&#45;4787&#45;40ef&#45;bd90&#45;ea7e954aa8c2 -->
<g id="node4" class="node">
<title>d3392cc5&#45;4787&#45;40ef&#45;bd90&#45;ea7e954aa8c2</title>
<ellipse fill="white" stroke="black" cx="550" cy="-99.87" rx="104.8" ry="26.74"/>
<text text-anchor="middle" x="550" y="-103.67" font-family="Helvetica,sans-Serif" font-size="14.00">▶ Modify</text>
<text text-anchor="middle" x="550" y="-88.67" font-family="Helvetica,sans-Serif" font-size="14.00">src/utils/tiktoken.ts</text>
</g>
<!-- 6b0558fc&#45;f299&#45;416e&#45;a243&#45;be16cd35863d&#45;&gt;d3392cc5&#45;4787&#45;40ef&#45;bd90&#45;ea7e954aa8c2 -->
<g id="edge2" class="edge">
<title>6b0558fc&#45;f299&#45;416e&#45;a243&#45;be16cd35863d&#45;&gt;d3392cc5&#45;4787&#45;40ef&#45;bd90&#45;ea7e954aa8c2</title>
<path fill="none" stroke="black" d="M382.56,-99.87C399.97,-99.87 417.37,-99.87 434.78,-99.87"/>
<polygon fill="black" stroke="black" points="435.02,-103.37 445.02,-99.87 435.02,-96.37 435.02,-103.37"/>
</g>
<!-- 5499714a&#45;9bac&#45;4789&#45;87e5&#45;fe9703baeb2c -->
<g id="node5" class="node">
<title>5499714a&#45;9bac&#45;4789&#45;87e5&#45;fe9703baeb2c</title>
<polygon fill="yellow" stroke="black" points="388,-36 0,-36 0,0 388,0 388,-36"/>
<text text-anchor="middle" x="194" y="-14.3" font-family="Helvetica,sans-Serif" font-size="14.00">⋯ Run GitHub Actions for `src/pages/api/generate.ts`</text>
</g>
<!-- 6b0558fc&#45;f299&#45;416e&#45;a243&#45;be16cd35863d&#45;&gt;5499714a&#45;9bac&#45;4789&#45;87e5&#45;fe9703baeb2c -->
<g id="edge1" class="edge">
<title>6b0558fc&#45;f299&#45;416e&#45;a243&#45;be16cd35863d&#45;&gt;5499714a&#45;9bac&#45;4789&#45;87e5&#45;fe9703baeb2c</title>
<path fill="none" stroke="black" stroke-dasharray="5,2" d="M229.26,-73.16C223.38,-64.13 216.78,-53.98 210.89,-44.94"/>
<polygon fill="black" stroke="black" points="213.68,-42.81 205.29,-36.34 207.81,-46.63 213.68,-42.81"/>
</g>
<!-- d3392cc5&#45;4787&#45;40ef&#45;bd90&#45;ea7e954aa8c2&#45;&gt;end -->
<g id="edge5" class="edge">
<title>d3392cc5&#45;4787&#45;40ef&#45;bd90&#45;ea7e954aa8c2&#45;&gt;end</title>
<path fill="none" stroke="black" d="M655.07,-99.87C674.28,-99.87 691.57,-99.87 702.16,-99.87"/>
<polygon fill="black" stroke="black" points="702.32,-103.37 712.32,-99.87 702.32,-96.37 702.32,-103.37"/>
<text text-anchor="middle" x="683.58" y="-106.67" font-family="Helvetica,sans-Serif" font-size="14.00">Finish</text>
</g>
<!-- 19417ea9&#45;df2c&#45;413b&#45;ae9f&#45;faf2e7a423c7 -->
<g id="node6" class="node">
<title>19417ea9&#45;df2c&#45;413b&#45;ae9f&#45;faf2e7a423c7</title>
<polygon fill="white" stroke="black" points="745.5,-36 406.5,-36 406.5,0 745.5,0 745.5,-36"/>
<text text-anchor="middle" x="576" y="-14.3" font-family="Helvetica,sans-Serif" font-size="14.00">▶ Run GitHub Actions for `src/utils/tiktoken.ts`</text>
</g>
<!-- d3392cc5&#45;4787&#45;40ef&#45;bd90&#45;ea7e954aa8c2&#45;&gt;19417ea9&#45;df2c&#45;413b&#45;ae9f&#45;faf2e7a423c7 -->
<g id="edge3" class="edge">
<title>d3392cc5&#45;4787&#45;40ef&#45;bd90&#45;ea7e954aa8c2&#45;&gt;19417ea9&#45;df2c&#45;413b&#45;ae9f&#45;faf2e7a423c7</title>
<path fill="none" stroke="black" stroke-dasharray="5,2" d="M558.51,-72.72C561.32,-64.08 564.45,-54.47 567.28,-45.79"/>
<polygon fill="black" stroke="black" points="570.65,-46.74 570.42,-36.15 563.99,-44.57 570.65,-46.74"/>
</g>
</g>
</svg>
