<?xml version="1.0" encoding="UTF-8" standalone="no"?>
<!DOCTYPE svg PUBLIC "-//W3C//DTD SVG 1.1//EN"
 "http://www.w3.org/Graphics/SVG/1.1/DTD/svg11.dtd">
<!-- Generated by graphviz version 2.43.0 (0)
 -->
<!-- Title: %3 Pages: 1 -->
<svg width="862pt" height="238pt"
 viewBox="0.00 0.00 861.50 237.74" xmlns="http://www.w3.org/2000/svg" xmlns:xlink="http://www.w3.org/1999/xlink">
<g id="graph0" class="graph" transform="scale(1 1) rotate(0) translate(36 201.74)">
<title>%3</title>
<polygon fill="dimgray" stroke="transparent" points="-36,36 -36,-201.74 825.5,-201.74 825.5,36 -36,36"/>
<text text-anchor="middle" x="394.75" y="-150.54" font-family="Helvetica,sans-Serif" font-size="14.00">Sweep&#39;s Plan &amp; Progress</text>
<!-- start -->
<g id="node1" class="node">
<title>start</title>
</g>
<!-- 8fccbfc7&#45;d3ab&#45;407a&#45;9a76&#45;7ccb5bccb27a -->
<g id="node3" class="node">
<title>8fccbfc7&#45;d3ab&#45;407a&#45;9a76&#45;7ccb5bccb27a</title>
<ellipse fill="yellow" stroke="black" cx="239.5" cy="-99.87" rx="138.69" ry="26.74"/>
<text text-anchor="middle" x="239.5" y="-103.67" font-family="Helvetica,sans-Serif" font-size="14.00">⋯ Create</text>
<text text-anchor="middle" x="239.5" y="-88.67" font-family="Helvetica,sans-Serif" font-size="14.00">src/utils/tiktoken&#45;server.ts</text>
</g>
<!-- start&#45;&gt;8fccbfc7&#45;d3ab&#45;407a&#45;9a76&#45;7ccb5bccb27a -->
<g id="edge4" class="edge">
<title>start&#45;&gt;8fccbfc7&#45;d3ab&#45;407a&#45;9a76&#45;7ccb5bccb27a</title>
<path fill="none" stroke="black" d="M49.05,-99.87C52.19,-99.87 68.58,-99.87 90.53,-99.87"/>
<polygon fill="black" stroke="black" points="90.61,-103.37 100.61,-99.87 90.61,-96.37 90.61,-103.37"/>
<text text-anchor="middle" x="74.95" y="-106.67" font-family="Helvetica,sans-Serif" font-size="14.00">Start</text>
</g>
<!-- end -->
<g id="node2" class="node">
<title>end</title>
</g>
<!-- 3108688c&#45;02e3&#45;43df&#45;ad00&#45;b25d036cee9d -->
<g id="node4" class="node">
<title>3108688c&#45;02e3&#45;43df&#45;ad00&#45;b25d036cee9d</title>
<ellipse fill="white" stroke="black" cx="574.5" cy="-99.87" rx="136.44" ry="26.74"/>
<text text-anchor="middle" x="574.5" y="-103.67" font-family="Helvetica,sans-Serif" font-size="14.00">▶ Modify</text>
<text text-anchor="middle" x="574.5" y="-88.67" font-family="Helvetica,sans-Serif" font-size="14.00">src/pages/api/generate.ts</text>
</g>
<!-- 8fccbfc7&#45;d3ab&#45;407a&#45;9a76&#45;7ccb5bccb27a&#45;&gt;3108688c&#45;02e3&#45;43df&#45;ad00&#45;b25d036cee9d -->
<g id="edge2" class="edge">
<title>8fccbfc7&#45;d3ab&#45;407a&#45;9a76&#45;7ccb5bccb27a&#45;&gt;3108688c&#45;02e3&#45;43df&#45;ad00&#45;b25d036cee9d</title>
<path fill="none" stroke="black" d="M378.21,-99.87C394.72,-99.87 411.23,-99.87 427.74,-99.87"/>
<polygon fill="black" stroke="black" points="428.02,-103.37 438.02,-99.87 428.02,-96.37 428.02,-103.37"/>
</g>
<!-- a2146a6e&#45;61b3&#45;4104&#45;b076&#45;59b44b4aacbd -->
<g id="node5" class="node">
<title>a2146a6e&#45;61b3&#45;4104&#45;b076&#45;59b44b4aacbd</title>
<polygon fill="white" stroke="black" points="387,-36 0,-36 0,0 387,0 387,-36"/>
<text text-anchor="middle" x="193.5" y="-14.3" font-family="Helvetica,sans-Serif" font-size="14.00">▶ Run GitHub Actions for `src/utils/tiktoken&#45;server.ts`</text>
</g>
<!-- 8fccbfc7&#45;d3ab&#45;407a&#45;9a76&#45;7ccb5bccb27a&#45;&gt;a2146a6e&#45;61b3&#45;4104&#45;b076&#45;59b44b4aacbd -->
<g id="edge1" class="edge">
<title>8fccbfc7&#45;d3ab&#45;407a&#45;9a76&#45;7ccb5bccb27a&#45;&gt;a2146a6e&#45;61b3&#45;4104&#45;b076&#45;59b44b4aacbd</title>
<path fill="none" stroke="black" stroke-dasharray="5,2" d="M224.44,-72.72C219.3,-63.8 213.57,-53.84 208.44,-44.95"/>
<polygon fill="black" stroke="black" points="211.4,-43.07 203.38,-36.15 205.33,-46.56 211.4,-43.07"/>
</g>
<!-- 3108688c&#45;02e3&#45;43df&#45;ad00&#45;b25d036cee9d&#45;&gt;end -->
<g id="edge5" class="edge">
<title>3108688c&#45;02e3&#45;43df&#45;ad00&#45;b25d036cee9d&#45;&gt;end</title>
<path fill="none" stroke="black" d="M711.08,-99.87C730.48,-99.87 747.32,-99.87 757.66,-99.87"/>
<polygon fill="black" stroke="black" points="757.85,-103.37 767.85,-99.87 757.85,-96.37 757.85,-103.37"/>
<text text-anchor="middle" x="739.49" y="-106.67" font-family="Helvetica,sans-Serif" font-size="14.00">Finish</text>
</g>
<!-- 6a6ad5ee&#45;8a7b&#45;4cad&#45;adb4&#45;a29da5377723 -->
<g id="node6" class="node">
<title>6a6ad5ee&#45;8a7b&#45;4cad&#45;adb4&#45;a29da5377723</title>
<polygon fill="white" stroke="black" points="789.5,-36 405.5,-36 405.5,0 789.5,0 789.5,-36"/>
<text text-anchor="middle" x="597.5" y="-14.3" font-family="Helvetica,sans-Serif" font-size="14.00">▶ Run GitHub Actions for `src/pages/api/generate.ts`</text>
</g>
<!-- 3108688c&#45;02e3&#45;43df&#45;ad00&#45;b25d036cee9d&#45;&gt;6a6ad5ee&#45;8a7b&#45;4cad&#45;adb4&#45;a29da5377723 -->
<g id="edge3" class="edge">
<title>3108688c&#45;02e3&#45;43df&#45;ad00&#45;b25d036cee9d&#45;&gt;6a6ad5ee&#45;8a7b&#45;4cad&#45;adb4&#45;a29da5377723</title>
<path fill="none" stroke="black" stroke-dasharray="5,2" d="M582.03,-72.72C584.52,-64.08 587.28,-54.47 589.78,-45.79"/>
<polygon fill="black" stroke="black" points="593.16,-46.72 592.56,-36.15 586.43,-44.79 593.16,-46.72"/>
</g>
</g>
</svg>
