<?xml version="1.0" encoding="UTF-8" standalone="no"?>
<!DOCTYPE svg PUBLIC "-//W3C//DTD SVG 1.1//EN"
 "http://www.w3.org/Graphics/SVG/1.1/DTD/svg11.dtd">
<!-- Generated by graphviz version 2.43.0 (0)
 -->
<!-- Title: %3 Pages: 1 -->
<svg width="686pt" height="238pt"
 viewBox="0.00 0.00 686.00 237.74" xmlns="http://www.w3.org/2000/svg" xmlns:xlink="http://www.w3.org/1999/xlink">
<g id="graph0" class="graph" transform="scale(1 1) rotate(0) translate(36 201.74)">
<title>%3</title>
<polygon fill="dimgray" stroke="transparent" points="-36,36 -36,-201.74 650,-201.74 650,36 -36,36"/>
<text text-anchor="middle" x="307" y="-150.54" font-family="Helvetica,sans-Serif" font-size="14.00">Sweep&#39;s Plan &amp; Progress</text>
<!-- start -->
<g id="node1" class="node">
<title>start</title>
</g>
<!-- e1f3d33f&#45;c517&#45;4957&#45;acce&#45;cfbc0f7d8eff -->
<g id="node3" class="node">
<title>e1f3d33f&#45;c517&#45;4957&#45;acce&#45;cfbc0f7d8eff</title>
<ellipse fill="yellow" stroke="black" cx="214.5" cy="-99.87" rx="77.56" ry="26.74"/>
<text text-anchor="middle" x="214.5" y="-103.67" font-family="Helvetica,sans-Serif" font-size="14.00">⋯ Modify</text>
<text text-anchor="middle" x="214.5" y="-88.67" font-family="Helvetica,sans-Serif" font-size="14.00">.env.example</text>
</g>
<!-- start&#45;&gt;e1f3d33f&#45;c517&#45;4957&#45;acce&#45;cfbc0f7d8eff -->
<g id="edge4" class="edge">
<title>start&#45;&gt;e1f3d33f&#45;c517&#45;4957&#45;acce&#45;cfbc0f7d8eff</title>
<path fill="none" stroke="black" d="M85.33,-99.87C89.18,-99.87 105.94,-99.87 126.19,-99.87"/>
<polygon fill="black" stroke="black" points="126.36,-103.37 136.36,-99.87 126.36,-96.37 126.36,-103.37"/>
<text text-anchor="middle" x="110.86" y="-106.67" font-family="Helvetica,sans-Serif" font-size="14.00">Start</text>
</g>
<!-- end -->
<g id="node2" class="node">
<title>end</title>
</g>
<!-- e6bdcb5f&#45;9012&#45;4f2e&#45;a03a&#45;1fae4264b28f -->
<g id="node4" class="node">
<title>e6bdcb5f&#45;9012&#45;4f2e&#45;a03a&#45;1fae4264b28f</title>
<ellipse fill="white" stroke="black" cx="434.5" cy="-99.87" rx="73.58" ry="26.74"/>
<text text-anchor="middle" x="434.5" y="-103.67" font-family="Helvetica,sans-Serif" font-size="14.00">▶ Modify</text>
<text text-anchor="middle" x="434.5" y="-88.67" font-family="Helvetica,sans-Serif" font-size="14.00">README.md</text>
</g>
<!-- e1f3d33f&#45;c517&#45;4957&#45;acce&#45;cfbc0f7d8eff&#45;&gt;e6bdcb5f&#45;9012&#45;4f2e&#45;a03a&#45;1fae4264b28f -->
<g id="edge2" class="edge">
<title>e1f3d33f&#45;c517&#45;4957&#45;acce&#45;cfbc0f7d8eff&#45;&gt;e6bdcb5f&#45;9012&#45;4f2e&#45;a03a&#45;1fae4264b28f</title>
<path fill="none" stroke="black" d="M292.7,-99.87C312.04,-99.87 331.38,-99.87 350.72,-99.87"/>
<polygon fill="black" stroke="black" points="350.83,-103.37 360.83,-99.87 350.83,-96.37 350.83,-103.37"/>
</g>
<!-- 97ef2595&#45;be8a&#45;41b4&#45;8d86&#45;67f3d6db6099 -->
<g id="node5" class="node">
<title>97ef2595&#45;be8a&#45;41b4&#45;8d86&#45;67f3d6db6099</title>
<polygon fill="white" stroke="black" points="301,-36 0,-36 0,0 301,0 301,-36"/>
<text text-anchor="middle" x="150.5" y="-14.3" font-family="Helvetica,sans-Serif" font-size="14.00">▶ Run GitHub Actions for `.env.example`</text>
</g>
<!-- e1f3d33f&#45;c517&#45;4957&#45;acce&#45;cfbc0f7d8eff&#45;&gt;97ef2595&#45;be8a&#45;41b4&#45;8d86&#45;67f3d6db6099 -->
<g id="edge1" class="edge">
<title>e1f3d33f&#45;c517&#45;4957&#45;acce&#45;cfbc0f7d8eff&#45;&gt;97ef2595&#45;be8a&#45;41b4&#45;8d86&#45;67f3d6db6099</title>
<path fill="none" stroke="black" stroke-dasharray="5,2" d="M194.25,-73.6C186.66,-64.13 178.04,-53.37 170.48,-43.93"/>
<polygon fill="black" stroke="black" points="173.14,-41.65 164.15,-36.04 167.67,-46.03 173.14,-41.65"/>
</g>
<!-- e6bdcb5f&#45;9012&#45;4f2e&#45;a03a&#45;1fae4264b28f&#45;&gt;end -->
<g id="edge5" class="edge">
<title>e6bdcb5f&#45;9012&#45;4f2e&#45;a03a&#45;1fae4264b28f&#45;&gt;end</title>
<path fill="none" stroke="black" d="M508.22,-99.87C526.84,-99.87 544.64,-99.87 555.56,-99.87"/>
<polygon fill="black" stroke="black" points="555.78,-103.37 565.78,-99.87 555.78,-96.37 555.78,-103.37"/>
<text text-anchor="middle" x="537.02" y="-106.67" font-family="Helvetica,sans-Serif" font-size="14.00">Finish</text>
</g>
<!-- 12422a41&#45;8589&#45;4b92&#45;87e3&#45;0b103006ee20 -->
<g id="node6" class="node">
<title>12422a41&#45;8589&#45;4b92&#45;87e3&#45;0b103006ee20</title>
<polygon fill="white" stroke="black" points="614,-36 319,-36 319,0 614,0 614,-36"/>
<text text-anchor="middle" x="466.5" y="-14.3" font-family="Helvetica,sans-Serif" font-size="14.00">▶ Run GitHub Actions for `README.md`</text>
</g>
<!-- e6bdcb5f&#45;9012&#45;4f2e&#45;a03a&#45;1fae4264b28f&#45;&gt;12422a41&#45;8589&#45;4b92&#45;87e3&#45;0b103006ee20 -->
<g id="edge3" class="edge">
<title>e6bdcb5f&#45;9012&#45;4f2e&#45;a03a&#45;1fae4264b28f&#45;&gt;12422a41&#45;8589&#45;4b92&#45;87e3&#45;0b103006ee20</title>
<path fill="none" stroke="black" stroke-dasharray="5,2" d="M444.8,-73.16C448.31,-64.41 452.23,-54.62 455.77,-45.79"/>
<polygon fill="black" stroke="black" points="459.08,-46.92 459.55,-36.34 452.59,-44.32 459.08,-46.92"/>
</g>
</g>
</svg>
