<?xml version="1.0" encoding="UTF-8" standalone="no"?>
<!DOCTYPE svg PUBLIC "-//W3C//DTD SVG 1.1//EN"
 "http://www.w3.org/Graphics/SVG/1.1/DTD/svg11.dtd">
<!-- Generated by graphviz version 2.43.0 (0)
 -->
<!-- Title: %3 Pages: 1 -->
<svg width="393pt" height="165pt"
 viewBox="0.00 0.00 393.00 164.74" xmlns="http://www.w3.org/2000/svg" xmlns:xlink="http://www.w3.org/1999/xlink">
<g id="graph0" class="graph" transform="scale(1 1) rotate(0) translate(36 128.74)">
<title>%3</title>
<polygon fill="dimgray" stroke="transparent" points="-36,36 -36,-128.74 357,-128.74 357,36 -36,36"/>
<text text-anchor="middle" x="160.5" y="-77.54" font-family="Helvetica,sans-Serif" font-size="14.00">Sweep&#39;s Plan &amp; Progress</text>
<!-- start -->
<g id="node1" class="node">
<title>start</title>
</g>
<!-- ff7f9246&#45;0509&#45;4788&#45;b709&#45;2b224d7db64b -->
<g id="node3" class="node">
<title>ff7f9246&#45;0509&#45;4788&#45;b709&#45;2b224d7db64b</title>
<ellipse fill="yellow" stroke="black" cx="157.5" cy="-26.87" rx="104.8" ry="26.74"/>
<text text-anchor="middle" x="157.5" y="-30.67" font-family="Helvetica,sans-Serif" font-size="14.00">⋯ Modify</text>
<text text-anchor="middle" x="157.5" y="-15.67" font-family="Helvetica,sans-Serif" font-size="14.00">src/utils/tiktoken.ts</text>
</g>
<!-- start&#45;&gt;ff7f9246&#45;0509&#45;4788&#45;b709&#45;2b224d7db64b -->
<g id="edge1" class="edge">
<title>start&#45;&gt;ff7f9246&#45;0509&#45;4788&#45;b709&#45;2b224d7db64b</title>
<path fill="none" stroke="black" d="M1.2,-26.87C4.75,-26.87 21.42,-26.87 42.64,-26.87"/>
<polygon fill="black" stroke="black" points="42.68,-30.37 52.68,-26.87 42.68,-23.37 42.68,-30.37"/>
<text text-anchor="middle" x="26.92" y="-33.67" font-family="Helvetica,sans-Serif" font-size="14.00">Start</text>
</g>
<!-- end -->
<g id="node2" class="node">
<title>end</title>
</g>
<!-- ff7f9246&#45;0509&#45;4788&#45;b709&#45;2b224d7db64b&#45;&gt;end -->
<g id="edge2" class="edge">
<title>ff7f9246&#45;0509&#45;4788&#45;b709&#45;2b224d7db64b&#45;&gt;end</title>
<path fill="none" stroke="black" d="M262.57,-26.87C281.78,-26.87 299.07,-26.87 309.66,-26.87"/>
<polygon fill="black" stroke="black" points="309.82,-30.37 319.82,-26.87 309.82,-23.37 309.82,-30.37"/>
<text text-anchor="middle" x="291.08" y="-33.67" font-family="Helvetica,sans-Serif" font-size="14.00">Finish</text>
</g>
</g>
</svg>
