<?xml version="1.0" encoding="UTF-8" standalone="no"?>
<!DOCTYPE svg PUBLIC "-//W3C//DTD SVG 1.1//EN"
 "http://www.w3.org/Graphics/SVG/1.1/DTD/svg11.dtd">
<!-- Generated by graphviz version 2.43.0 (0)
 -->
<!-- Title: %3 Pages: 1 -->
<svg width="993pt" height="238pt"
 viewBox="0.00 0.00 992.50 237.74" xmlns="http://www.w3.org/2000/svg" xmlns:xlink="http://www.w3.org/1999/xlink">
<g id="graph0" class="graph" transform="scale(1 1) rotate(0) translate(36 201.74)">
<title>%3</title>
<polygon fill="dimgray" stroke="transparent" points="-36,36 -36,-201.74 956.5,-201.74 956.5,36 -36,36"/>
<text text-anchor="middle" x="460.25" y="-150.54" font-family="Helvetica,sans-Serif" font-size="14.00">Sweep&#39;s Plan &amp; Progress</text>
<!-- start -->
<g id="node1" class="node">
<title>start</title>
</g>
<!-- 2b176b5d&#45;2f25&#45;4dc7&#45;94ef&#45;e418d3c9b968 -->
<g id="node3" class="node">
<title>2b176b5d&#45;2f25&#45;4dc7&#45;94ef&#45;e418d3c9b968</title>
<ellipse fill="yellow" stroke="black" cx="214.5" cy="-99.87" rx="77.56" ry="26.74"/>
<text text-anchor="middle" x="214.5" y="-103.67" font-family="Helvetica,sans-Serif" font-size="14.00">⋯ Modify</text>
<text text-anchor="middle" x="214.5" y="-88.67" font-family="Helvetica,sans-Serif" font-size="14.00">.env.example</text>
</g>
<!-- start&#45;&gt;2b176b5d&#45;2f25&#45;4dc7&#45;94ef&#45;e418d3c9b968 -->
<g id="edge6" class="edge">
<title>start&#45;&gt;2b176b5d&#45;2f25&#45;4dc7&#45;94ef&#45;e418d3c9b968</title>
<path fill="none" stroke="black" d="M85.33,-99.87C89.18,-99.87 105.94,-99.87 126.19,-99.87"/>
<polygon fill="black" stroke="black" points="126.36,-103.37 136.36,-99.87 126.36,-96.37 126.36,-103.37"/>
<text text-anchor="middle" x="110.86" y="-106.67" font-family="Helvetica,sans-Serif" font-size="14.00">Start</text>
</g>
<!-- end -->
<g id="node2" class="node">
<title>end</title>
</g>
<!-- b9aa384b&#45;5a0d&#45;4581&#45;9d8d&#45;ecaeb61a0ddc -->
<g id="node4" class="node">
<title>b9aa384b&#45;5a0d&#45;4581&#45;9d8d&#45;ecaeb61a0ddc</title>
<ellipse fill="white" stroke="black" cx="466.5" cy="-99.87" rx="73.58" ry="26.74"/>
<text text-anchor="middle" x="466.5" y="-103.67" font-family="Helvetica,sans-Serif" font-size="14.00">▶ Modify</text>
<text text-anchor="middle" x="466.5" y="-88.67" font-family="Helvetica,sans-Serif" font-size="14.00">README.md</text>
</g>
<!-- 2b176b5d&#45;2f25&#45;4dc7&#45;94ef&#45;e418d3c9b968&#45;&gt;b9aa384b&#45;5a0d&#45;4581&#45;9d8d&#45;ecaeb61a0ddc -->
<g id="edge2" class="edge">
<title>2b176b5d&#45;2f25&#45;4dc7&#45;94ef&#45;e418d3c9b968&#45;&gt;b9aa384b&#45;5a0d&#45;4581&#45;9d8d&#45;ecaeb61a0ddc</title>
<path fill="none" stroke="black" d="M292.76,-99.87C322.74,-99.87 352.72,-99.87 382.7,-99.87"/>
<polygon fill="black" stroke="black" points="382.86,-103.37 392.86,-99.87 382.86,-96.37 382.86,-103.37"/>
</g>
<!-- 5038cb59&#45;5af5&#45;4ac6&#45;8140&#45;544f670ac360 -->
<g id="node6" class="node">
<title>5038cb59&#45;5af5&#45;4ac6&#45;8140&#45;544f670ac360</title>
<polygon fill="white" stroke="black" points="301,-36 0,-36 0,0 301,0 301,-36"/>
<text text-anchor="middle" x="150.5" y="-14.3" font-family="Helvetica,sans-Serif" font-size="14.00">▶ Run GitHub Actions for `.env.example`</text>
</g>
<!-- 2b176b5d&#45;2f25&#45;4dc7&#45;94ef&#45;e418d3c9b968&#45;&gt;5038cb59&#45;5af5&#45;4ac6&#45;8140&#45;544f670ac360 -->
<g id="edge1" class="edge">
<title>2b176b5d&#45;2f25&#45;4dc7&#45;94ef&#45;e418d3c9b968&#45;&gt;5038cb59&#45;5af5&#45;4ac6&#45;8140&#45;544f670ac360</title>
<path fill="none" stroke="black" stroke-dasharray="5,2" d="M194.25,-73.6C186.66,-64.13 178.04,-53.37 170.48,-43.93"/>
<polygon fill="black" stroke="black" points="173.14,-41.65 164.15,-36.04 167.67,-46.03 173.14,-41.65"/>
</g>
<!-- 83633206&#45;d61f&#45;4968&#45;8071&#45;e3639c989fbe -->
<g id="node5" class="node">
<title>83633206&#45;d61f&#45;4968&#45;8071&#45;e3639c989fbe</title>
<ellipse fill="white" stroke="black" cx="710.5" cy="-99.87" rx="68.68" ry="26.74"/>
<text text-anchor="middle" x="710.5" y="-103.67" font-family="Helvetica,sans-Serif" font-size="14.00">▶ Modify</text>
<text text-anchor="middle" x="710.5" y="-88.67" font-family="Helvetica,sans-Serif" font-size="14.00">src/env.d.ts</text>
</g>
<!-- b9aa384b&#45;5a0d&#45;4581&#45;9d8d&#45;ecaeb61a0ddc&#45;&gt;83633206&#45;d61f&#45;4968&#45;8071&#45;e3639c989fbe -->
<g id="edge4" class="edge">
<title>b9aa384b&#45;5a0d&#45;4581&#45;9d8d&#45;ecaeb61a0ddc&#45;&gt;83633206&#45;d61f&#45;4968&#45;8071&#45;e3639c989fbe</title>
<path fill="none" stroke="black" d="M540.37,-99.87C570.72,-99.87 601.07,-99.87 631.42,-99.87"/>
<polygon fill="black" stroke="black" points="631.72,-103.37 641.72,-99.87 631.72,-96.37 631.72,-103.37"/>
</g>
<!-- 61041aab&#45;90c2&#45;4275&#45;b4ee&#45;1ad000180156 -->
<g id="node7" class="node">
<title>61041aab&#45;90c2&#45;4275&#45;b4ee&#45;1ad000180156</title>
<polygon fill="white" stroke="black" points="614,-36 319,-36 319,0 614,0 614,-36"/>
<text text-anchor="middle" x="466.5" y="-14.3" font-family="Helvetica,sans-Serif" font-size="14.00">▶ Run GitHub Actions for `README.md`</text>
</g>
<!-- b9aa384b&#45;5a0d&#45;4581&#45;9d8d&#45;ecaeb61a0ddc&#45;&gt;61041aab&#45;90c2&#45;4275&#45;b4ee&#45;1ad000180156 -->
<g id="edge3" class="edge">
<title>b9aa384b&#45;5a0d&#45;4581&#45;9d8d&#45;ecaeb61a0ddc&#45;&gt;61041aab&#45;90c2&#45;4275&#45;b4ee&#45;1ad000180156</title>
<path fill="none" stroke="black" stroke-dasharray="5,2" d="M466.5,-72.72C466.5,-64.27 466.5,-54.89 466.5,-46.36"/>
<polygon fill="black" stroke="black" points="470,-46.15 466.5,-36.15 463,-46.15 470,-46.15"/>
</g>
<!-- 83633206&#45;d61f&#45;4968&#45;8071&#45;e3639c989fbe&#45;&gt;end -->
<g id="edge7" class="edge">
<title>83633206&#45;d61f&#45;4968&#45;8071&#45;e3639c989fbe&#45;&gt;end</title>
<path fill="none" stroke="black" d="M779.2,-99.87C797.64,-99.87 815.48,-99.87 826.47,-99.87"/>
<polygon fill="black" stroke="black" points="826.77,-103.37 836.77,-99.87 826.77,-96.37 826.77,-103.37"/>
<text text-anchor="middle" x="808.04" y="-106.67" font-family="Helvetica,sans-Serif" font-size="14.00">Finish</text>
</g>
<!-- c5af775c&#45;bf1d&#45;4822&#45;af88&#45;09d31b92fd52 -->
<g id="node8" class="node">
<title>c5af775c&#45;bf1d&#45;4822&#45;af88&#45;09d31b92fd52</title>
<polygon fill="white" stroke="black" points="920.5,-36 632.5,-36 632.5,0 920.5,0 920.5,-36"/>
<text text-anchor="middle" x="776.5" y="-14.3" font-family="Helvetica,sans-Serif" font-size="14.00">▶ Run GitHub Actions for `src/env.d.ts`</text>
</g>
<!-- 83633206&#45;d61f&#45;4968&#45;8071&#45;e3639c989fbe&#45;&gt;c5af775c&#45;bf1d&#45;4822&#45;af88&#45;09d31b92fd52 -->
<g id="edge5" class="edge">
<title>83633206&#45;d61f&#45;4968&#45;8071&#45;e3639c989fbe&#45;&gt;c5af775c&#45;bf1d&#45;4822&#45;af88&#45;09d31b92fd52</title>
<path fill="none" stroke="black" stroke-dasharray="5,2" d="M731.02,-74.04C738.86,-64.54 747.81,-53.72 755.68,-44.19"/>
<polygon fill="black" stroke="black" points="758.6,-46.16 762.27,-36.22 753.2,-41.7 758.6,-46.16"/>
</g>
</g>
</svg>
