<?xml version="1.0" encoding="UTF-8" standalone="no"?>
<!DOCTYPE svg PUBLIC "-//W3C//DTD SVG 1.1//EN"
 "http://www.w3.org/Graphics/SVG/1.1/DTD/svg11.dtd">
<!-- Generated by graphviz version 2.43.0 (0)
 -->
<!-- Title: %3 Pages: 1 -->
<svg width="455pt" height="165pt"
 viewBox="0.00 0.00 455.00 164.74" xmlns="http://www.w3.org/2000/svg" xmlns:xlink="http://www.w3.org/1999/xlink">
<g id="graph0" class="graph" transform="scale(1 1) rotate(0) translate(36 128.74)">
<title>%3</title>
<polygon fill="dimgray" stroke="transparent" points="-36,36 -36,-128.74 419,-128.74 419,36 -36,36"/>
<text text-anchor="middle" x="191.5" y="-77.54" font-family="Helvetica,sans-Serif" font-size="14.00">Sweep&#39;s Plan &amp; Progress</text>
<!-- start -->
<g id="node1" class="node">
<title>start</title>
</g>
<!-- bc93ec69&#45;2c4b&#45;41fb&#45;b945&#45;c7078f2d14a2 -->
<g id="node3" class="node">
<title>bc93ec69&#45;2c4b&#45;41fb&#45;b945&#45;c7078f2d14a2</title>
<ellipse fill="#0ee832" stroke="black" cx="188.5" cy="-26.87" rx="136.44" ry="26.74"/>
<text text-anchor="middle" x="188.5" y="-30.67" font-family="Helvetica,sans-Serif" font-size="14.00">✓ Modify</text>
<text text-anchor="middle" x="188.5" y="-15.67" font-family="Helvetica,sans-Serif" font-size="14.00">src/pages/api/generate.ts</text>
</g>
<!-- start&#45;&gt;bc93ec69&#45;2c4b&#45;41fb&#45;b945&#45;c7078f2d14a2 -->
<g id="edge1" class="edge">
<title>start&#45;&gt;bc93ec69&#45;2c4b&#45;41fb&#45;b945&#45;c7078f2d14a2</title>
<path fill="none" stroke="black" d="M1.04,-26.87C4.12,-26.87 20.12,-26.87 41.58,-26.87"/>
<polygon fill="black" stroke="black" points="41.79,-30.37 51.79,-26.87 41.79,-23.37 41.79,-30.37"/>
<text text-anchor="middle" x="26.51" y="-33.67" font-family="Helvetica,sans-Serif" font-size="14.00">Start</text>
</g>
<!-- end -->
<g id="node2" class="node">
<title>end</title>
</g>
<!-- bc93ec69&#45;2c4b&#45;41fb&#45;b945&#45;c7078f2d14a2&#45;&gt;end -->
<g id="edge2" class="edge">
<title>bc93ec69&#45;2c4b&#45;41fb&#45;b945&#45;c7078f2d14a2&#45;&gt;end</title>
<path fill="none" stroke="black" d="M325.08,-26.87C344.48,-26.87 361.32,-26.87 371.66,-26.87"/>
<polygon fill="black" stroke="black" points="371.85,-30.37 381.85,-26.87 371.85,-23.37 371.85,-30.37"/>
<text text-anchor="middle" x="353.49" y="-33.67" font-family="Helvetica,sans-Serif" font-size="14.00">Finish</text>
</g>
</g>
</svg>
