<?xml version="1.0" encoding="UTF-8" standalone="no"?>
<!DOCTYPE svg PUBLIC "-//W3C//DTD SVG 1.1//EN"
 "http://www.w3.org/Graphics/SVG/1.1/DTD/svg11.dtd">
<!-- Generated by graphviz version 2.43.0 (0)
 -->
<!-- Title: %3 Pages: 1 -->
<svg width="814pt" height="238pt"
 viewBox="0.00 0.00 813.50 237.74" xmlns="http://www.w3.org/2000/svg" xmlns:xlink="http://www.w3.org/1999/xlink">
<g id="graph0" class="graph" transform="scale(1 1) rotate(0) translate(36 201.74)">
<title>%3</title>
<polygon fill="dimgray" stroke="transparent" points="-36,36 -36,-201.74 777.5,-201.74 777.5,36 -36,36"/>
<text text-anchor="middle" x="370.75" y="-150.54" font-family="Helvetica,sans-Serif" font-size="14.00">Sweep&#39;s Plan &amp; Progress</text>
<!-- start -->
<g id="node1" class="node">
<title>start</title>
</g>
<!-- 6b0558fc&#45;f299&#45;416e&#45;a243&#45;be16cd35863d -->
<g id="node3" class="node">
<title>6b0558fc&#45;f299&#45;416e&#45;a243&#45;be16cd35863d</title>
<ellipse fill="yellow" stroke="black" cx="243" cy="-99.87" rx="136.44" ry="26.74"/>
<text text-anchor="middle" x="243" y="-103.67" font-family="Helvetica,sans-Serif" font-size="14.00">⋯ Modify</text>
<text text-anchor="middle" x="243" y="-88.67" font-family="Helvetica,sans-Serif" font-size="14.00">src/pages/api/generate.ts</text>
</g>
<!-- start&#45;&gt;6b0558fc&#45;f299&#45;416e&#45;a243&#45;be16cd35863d -->
<g id="edge4" class="edge">
<title>start&#45;&gt;6b0558fc&#45;f299&#45;416e&#45;a243&#45;be16cd35863d</title>
<path fill="none" stroke="black" d="M55.54,-99.87C58.62,-99.87 74.62,-99.87 96.08,-99.87"/>
<polygon fill="black" stroke="black" points="96.29,-103.37 106.29,-99.87 96.29,-96.37 96.29,-103.37"/>
<text text-anchor="middle" x="81.01" y="-106.67" font-family="Helvetica,sans-Serif" font-size="14.00">Start</text>
</g>
<!-- end -->
<g id="node2" class="node">
<title>end</title>
</g>
<!-- d3392cc5&#45;4787&#45;40ef&#45;bd90&#45;ea7e954aa8c2 -->
<g id="node4" class="node">
<title>d3392cc5&#45;4787&#45;40ef&#45;bd90&#45;ea7e954aa8c2</title>
<ellipse fill="white" stroke="black" cx="546" cy="-99.87" rx="104.8" ry="26.74"/>
<text text-anchor="middle" x="546" y="-103.67" font-family="Helvetica,sans-Serif" font-size="14.00">▶ Modify</text>
<text text-anchor="middle" x="546" y="-88.67" font-family="Helvetica,sans-Serif" font-size="14.00">src/utils/tiktoken.ts</text>
</g>
<!-- 6b0558fc&#45;f299&#45;416e&#45;a243&#45;be16cd35863d&#45;&gt;d3392cc5&#45;4787&#45;40ef&#45;bd90&#45;ea7e954aa8c2 -->
<g id="edge2" class="edge">
<title>6b0558fc&#45;f299&#45;416e&#45;a243&#45;be16cd35863d&#45;&gt;d3392cc5&#45;4787&#45;40ef&#45;bd90&#45;ea7e954aa8c2</title>
<path fill="none" stroke="black" d="M379.71,-99.87C396.81,-99.87 413.92,-99.87 431.02,-99.87"/>
<polygon fill="black" stroke="black" points="431.09,-103.37 441.09,-99.87 431.09,-96.37 431.09,-103.37"/>
</g>
<!-- 5499714a&#45;9bac&#45;4789&#45;87e5&#45;fe9703baeb2c -->
<g id="node5" class="node">
<title>5499714a&#45;9bac&#45;4789&#45;87e5&#45;fe9703baeb2c</title>
<polygon fill="white" stroke="black" points="384,-36 0,-36 0,0 384,0 384,-36"/>
<text text-anchor="middle" x="192" y="-14.3" font-family="Helvetica,sans-Serif" font-size="14.00">▶ Run GitHub Actions for `src/pages/api/generate.ts`</text>
</g>
<!-- 6b0558fc&#45;f299&#45;416e&#45;a243&#45;be16cd35863d&#45;&gt;5499714a&#45;9bac&#45;4789&#45;87e5&#45;fe9703baeb2c -->
<g id="edge1" class="edge">
<title>6b0558fc&#45;f299&#45;416e&#45;a243&#45;be16cd35863d&#45;&gt;5499714a&#45;9bac&#45;4789&#45;87e5&#45;fe9703baeb2c</title>
<path fill="none" stroke="black" stroke-dasharray="5,2" d="M226.58,-73.16C220.82,-64.13 214.34,-53.98 208.56,-44.94"/>
<polygon fill="black" stroke="black" points="211.4,-42.88 203.07,-36.34 205.5,-46.65 211.4,-42.88"/>
</g>
<!-- d3392cc5&#45;4787&#45;40ef&#45;bd90&#45;ea7e954aa8c2&#45;&gt;end -->
<g id="edge5" class="edge">
<title>d3392cc5&#45;4787&#45;40ef&#45;bd90&#45;ea7e954aa8c2&#45;&gt;end</title>
<path fill="none" stroke="black" d="M651.07,-99.87C670.28,-99.87 687.57,-99.87 698.16,-99.87"/>
<polygon fill="black" stroke="black" points="698.32,-103.37 708.32,-99.87 698.32,-96.37 698.32,-103.37"/>
<text text-anchor="middle" x="679.58" y="-106.67" font-family="Helvetica,sans-Serif" font-size="14.00">Finish</text>
</g>
<!-- 19417ea9&#45;df2c&#45;413b&#45;ae9f&#45;faf2e7a423c7 -->
<g id="node6" class="node">
<title>19417ea9&#45;df2c&#45;413b&#45;ae9f&#45;faf2e7a423c7</title>
<polygon fill="white" stroke="black" points="741.5,-36 402.5,-36 402.5,0 741.5,0 741.5,-36"/>
<text text-anchor="middle" x="572" y="-14.3" font-family="Helvetica,sans-Serif" font-size="14.00">▶ Run GitHub Actions for `src/utils/tiktoken.ts`</text>
</g>
<!-- d3392cc5&#45;4787&#45;40ef&#45;bd90&#45;ea7e954aa8c2&#45;&gt;19417ea9&#45;df2c&#45;413b&#45;ae9f&#45;faf2e7a423c7 -->
<g id="edge3" class="edge">
<title>d3392cc5&#45;4787&#45;40ef&#45;bd90&#45;ea7e954aa8c2&#45;&gt;19417ea9&#45;df2c&#45;413b&#45;ae9f&#45;faf2e7a423c7</title>
<path fill="none" stroke="black" stroke-dasharray="5,2" d="M554.51,-72.72C557.32,-64.08 560.45,-54.47 563.28,-45.79"/>
<polygon fill="black" stroke="black" points="566.65,-46.74 566.42,-36.15 559.99,-44.57 566.65,-46.74"/>
</g>
</g>
</svg>
