<?xml version="1.0" encoding="UTF-8" standalone="no"?>
<!DOCTYPE svg PUBLIC "-//W3C//DTD SVG 1.1//EN"
 "http://www.w3.org/Graphics/SVG/1.1/DTD/svg11.dtd">
<!-- Generated by graphviz version 2.43.0 (0)
 -->
<!-- Title: %3 Pages: 1 -->
<svg width="868pt" height="238pt"
 viewBox="0.00 0.00 867.50 237.74" xmlns="http://www.w3.org/2000/svg" xmlns:xlink="http://www.w3.org/1999/xlink">
<g id="graph0" class="graph" transform="scale(1 1) rotate(0) translate(36 201.74)">
<title>%3</title>
<polygon fill="dimgray" stroke="transparent" points="-36,36 -36,-201.74 831.5,-201.74 831.5,36 -36,36"/>
<text text-anchor="middle" x="397.75" y="-150.54" font-family="Helvetica,sans-Serif" font-size="14.00">Sweep&#39;s Plan &amp; Progress</text>
<!-- start -->
<g id="node1" class="node">
<title>start</title>
</g>
<!-- 8fccbfc7&#45;d3ab&#45;407a&#45;9a76&#45;7ccb5bccb27a -->
<g id="node3" class="node">
<title>8fccbfc7&#45;d3ab&#45;407a&#45;9a76&#45;7ccb5bccb27a</title>
<ellipse fill="#0ee832" stroke="black" cx="242.5" cy="-99.87" rx="138.69" ry="26.74"/>
<text text-anchor="middle" x="242.5" y="-103.67" font-family="Helvetica,sans-Serif" font-size="14.00">✓ Create</text>
<text text-anchor="middle" x="242.5" y="-88.67" font-family="Helvetica,sans-Serif" font-size="14.00">src/utils/tiktoken&#45;server.ts</text>
</g>
<!-- start&#45;&gt;8fccbfc7&#45;d3ab&#45;407a&#45;9a76&#45;7ccb5bccb27a -->
<g id="edge4" class="edge">
<title>start&#45;&gt;8fccbfc7&#45;d3ab&#45;407a&#45;9a76&#45;7ccb5bccb27a</title>
<path fill="none" stroke="black" d="M52.05,-99.87C55.19,-99.87 71.58,-99.87 93.53,-99.87"/>
<polygon fill="black" stroke="black" points="93.61,-103.37 103.61,-99.87 93.61,-96.37 93.61,-103.37"/>
<text text-anchor="middle" x="77.95" y="-106.67" font-family="Helvetica,sans-Serif" font-size="14.00">Start</text>
</g>
<!-- end -->
<g id="node2" class="node">
<title>end</title>
</g>
<!-- 3108688c&#45;02e3&#45;43df&#45;ad00&#45;b25d036cee9d -->
<g id="node4" class="node">
<title>3108688c&#45;02e3&#45;43df&#45;ad00&#45;b25d036cee9d</title>
<ellipse fill="#0ee832" stroke="black" cx="577.5" cy="-99.87" rx="136.44" ry="26.74"/>
<text text-anchor="middle" x="577.5" y="-103.67" font-family="Helvetica,sans-Serif" font-size="14.00">✓ Modify</text>
<text text-anchor="middle" x="577.5" y="-88.67" font-family="Helvetica,sans-Serif" font-size="14.00">src/pages/api/generate.ts</text>
</g>
<!-- 8fccbfc7&#45;d3ab&#45;407a&#45;9a76&#45;7ccb5bccb27a&#45;&gt;3108688c&#45;02e3&#45;43df&#45;ad00&#45;b25d036cee9d -->
<g id="edge2" class="edge">
<title>8fccbfc7&#45;d3ab&#45;407a&#45;9a76&#45;7ccb5bccb27a&#45;&gt;3108688c&#45;02e3&#45;43df&#45;ad00&#45;b25d036cee9d</title>
<path fill="none" stroke="black" d="M381.21,-99.87C397.72,-99.87 414.23,-99.87 430.74,-99.87"/>
<polygon fill="black" stroke="black" points="431.02,-103.37 441.02,-99.87 431.02,-96.37 431.02,-103.37"/>
</g>
<!-- a2146a6e&#45;61b3&#45;4104&#45;b076&#45;59b44b4aacbd -->
<g id="node5" class="node">
<title>a2146a6e&#45;61b3&#45;4104&#45;b076&#45;59b44b4aacbd</title>
<polygon fill="#0ee832" stroke="black" points="389,-36 0,-36 0,0 389,0 389,-36"/>
<text text-anchor="middle" x="194.5" y="-14.3" font-family="Helvetica,sans-Serif" font-size="14.00">✓ Run GitHub Actions for `src/utils/tiktoken&#45;server.ts`</text>
</g>
<!-- 8fccbfc7&#45;d3ab&#45;407a&#45;9a76&#45;7ccb5bccb27a&#45;&gt;a2146a6e&#45;61b3&#45;4104&#45;b076&#45;59b44b4aacbd -->
<g id="edge1" class="edge">
<title>8fccbfc7&#45;d3ab&#45;407a&#45;9a76&#45;7ccb5bccb27a&#45;&gt;a2146a6e&#45;61b3&#45;4104&#45;b076&#45;59b44b4aacbd</title>
<path fill="none" stroke="black" stroke-dasharray="5,2" d="M227.05,-73.16C221.62,-64.13 215.52,-53.98 210.09,-44.94"/>
<polygon fill="black" stroke="black" points="213.07,-43.11 204.92,-36.34 207.07,-46.71 213.07,-43.11"/>
</g>
<!-- 3108688c&#45;02e3&#45;43df&#45;ad00&#45;b25d036cee9d&#45;&gt;end -->
<g id="edge5" class="edge">
<title>3108688c&#45;02e3&#45;43df&#45;ad00&#45;b25d036cee9d&#45;&gt;end</title>
<path fill="none" stroke="black" d="M714.08,-99.87C733.48,-99.87 750.32,-99.87 760.66,-99.87"/>
<polygon fill="black" stroke="black" points="760.85,-103.37 770.85,-99.87 760.85,-96.37 760.85,-103.37"/>
<text text-anchor="middle" x="742.49" y="-106.67" font-family="Helvetica,sans-Serif" font-size="14.00">Finish</text>
</g>
<!-- 6a6ad5ee&#45;8a7b&#45;4cad&#45;adb4&#45;a29da5377723 -->
<g id="node6" class="node">
<title>6a6ad5ee&#45;8a7b&#45;4cad&#45;adb4&#45;a29da5377723</title>
<polygon fill="yellow" stroke="black" points="795.5,-36 407.5,-36 407.5,0 795.5,0 795.5,-36"/>
<text text-anchor="middle" x="601.5" y="-14.3" font-family="Helvetica,sans-Serif" font-size="14.00">⋯ Run GitHub Actions for `src/pages/api/generate.ts`</text>
</g>
<!-- 3108688c&#45;02e3&#45;43df&#45;ad00&#45;b25d036cee9d&#45;&gt;6a6ad5ee&#45;8a7b&#45;4cad&#45;adb4&#45;a29da5377723 -->
<g id="edge3" class="edge">
<title>3108688c&#45;02e3&#45;43df&#45;ad00&#45;b25d036cee9d&#45;&gt;6a6ad5ee&#45;8a7b&#45;4cad&#45;adb4&#45;a29da5377723</title>
<path fill="none" stroke="black" stroke-dasharray="5,2" d="M585.36,-72.72C587.95,-64.08 590.84,-54.47 593.45,-45.79"/>
<polygon fill="black" stroke="black" points="596.82,-46.73 596.35,-36.15 590.12,-44.72 596.82,-46.73"/>
</g>
</g>
</svg>
